<?xml version="1.0" encoding="utf-8"?>
<!-- Generator: Adobe Illustrator 23.1.0, SVG Export Plug-In . SVG Version: 6.00 Build 0)  -->
<svg version="1.1" id="Layer_1" xmlns="http://www.w3.org/2000/svg" xmlns:xlink="http://www.w3.org/1999/xlink" x="0px" y="0px"
	 width="551px" height="355px" viewBox="0 0 551 355" style="enable-background:new 0 0 551 355;" xml:space="preserve">
<style type="text/css">
	.st0{fill:#0E7C98;}
	.st1{fill-rule:evenodd;clip-rule:evenodd;fill:#FFFFFF;}
	.st2{fill-rule:evenodd;clip-rule:evenodd;fill:#0E7C98;}
	.st3{fill-rule:evenodd;clip-rule:evenodd;fill:#006697;}
	.st4{fill:#FFFFFF;}
</style>
<path class="st0" d="M74.3,89.6h423.5c14.8,0,26.2,12,26.2,26.2v128.2c0,14.8-12,26.2-26.2,26.2H74.3c-14.8,0-26.2-12-26.2-26.2
	V115.9C47.5,101.6,59.5,89.6,74.3,89.6z"/>
<path class="st1" d="M210,91.4H74.3c-13.7,0-24.5,10.8-24.5,24.5l0,0v128.2c0,13.7,10.8,24.5,24.5,24.5H210V91.4z"/>
<path class="st2" d="M117.6,150.1l-7.4,10.3c-4,5.7-2.8,13.7,2.3,18.2l14.2,10.3c2.3,1.7,2.8,3.4,1.7,5.1l2.3,1.7l7.4-10.3
	c4.6-5.7,3.4-14.2-2.3-18.8c0,0-0.6,0-0.6-0.6L121,155.8c-1.7-1.1-2.3-3.4-1.1-5.1C119.3,151.8,117.6,150.1,117.6,150.1z"/>
<path class="st2" d="M129.6,103.3l-12,16.5c-5.7,8.5-4,19.9,4,26.2l19.4,14.2c4,4,4.6,9.7,1.7,14.2l1.7,1.1l13.7-18.8
	c6.8-8.5,5.1-21.1-4-27.9l0,0L133,113.6c-2.8-1.7-4-5.7-2.3-8.5c0,0,0-0.6,0.6-0.6L129.6,103.3z"/>
<path class="st2" d="M98.2,207.1h16l2.8,9.7h25.6l2.8-9.7h16l-2.3-6.8h-58.7L98.2,207.1z"/>
<path class="st3" d="M179.7,256.1L179.7,256.1C179.7,255.5,179.7,255.5,179.7,256.1c0-0.6,0-0.6-0.6-0.6h-0.6H178l0,0l0,0v-0.6l0,0
	l0,0h0.6h0.6c0,0,0,0,0.6,0v-0.6h-0.6h-0.6H178c0,0,0,0-0.6,0c0,0,0,0,0,0.6s0,0,0,0.6v0.6l0,0c0,0,0,0,0.6,0h0.6h0.6l0,0l0,0l0,0
	v0.6h-0.6H178c0,0-0.6,0-0.6-0.6v0.6c0,0,0.6,0,0.6,0.6h0.6h0.6c0,0,0,0,0.6,0C179.7,256.6,179.7,256.6,179.7,256.1
	C179.7,256.6,179.7,256.1,179.7,256.1L179.7,256.1z"/>
<path class="st3" d="M184.3,257.2v-4h-0.6l-1.1,2.3l0,0l0,0l0,0l0,0l0,0l0,0l0,0l-1.1-2.3h-0.6v4h0.6v-2.8l0,0l0,0l0,0l1.1,2.3
	l1.1-2.3l0,0l0,0v2.8H184.3L184.3,257.2z"/>
<path class="st2" d="M111.9,246.4c-0.6-4.6-2.3-5.7-6.3-7.4c2.8-1.1,4.6-4,4.6-7.4c0-6.8-5.1-9.1-11.4-9.1h-16v34.8h16
	C105.6,257.2,113.1,254.4,111.9,246.4z M90.3,229.3h8.5c2.3,0,4,1.1,4,3.4c0,2.3-1.1,4-3.4,4c0,0,0,0-0.6,0h-9.1v-7.4L90.3,229.3
	L90.3,229.3z M99.4,250.4h-9.7v-8h9.7C106.2,243,106.2,250.4,99.4,250.4z"/>
<path class="st2" d="M144.4,246.4c-0.6-4.6-2.3-5.7-6.3-7.4c2.8-1.1,4.6-4,4.6-7.4c0-6.8-5.1-9.1-11.4-9.1h-16v34.8h16
	C138.1,257.2,145.5,254.4,144.4,246.4z M122.2,229.3h8.5c2.3,0,4,1.1,4,3.4c0,2.3-1.1,4-3.4,4c0,0,0,0-0.6,0h-9.1v-7.4L122.2,229.3
	L122.2,229.3z M131.9,250.4h-9.7v-8h9.7C138.7,243,138.1,250.4,131.9,250.4L131.9,250.4z"/>
<path class="st2" d="M176.9,246.4c-0.6-4.6-2.3-5.7-6.3-7.4c2.8-1.1,4.6-4,4.6-7.4c0-6.8-5.1-9.1-11.4-9.1h-16v34.8h16
	C170.6,257.2,178,254.4,176.9,246.4z M154.7,229.3h8.5c2.3,0,4,1.1,4,3.4c0,2.3-1.1,4-3.4,4c0,0,0,0-0.6,0h-9.1v-7.4L154.7,229.3
	L154.7,229.3z M164.4,250.4h-9.7v-8h9.7C171.2,243,170.6,250.4,164.4,250.4z"/>
<g transform="translate(33.285 9.917)">
	<path class="st4" d="M217,136.2h6.3l12.5,30.2H229l-2.8-6.8h-12.5l-2.8,6.8h-6.8L217,136.2z M223.9,153.9l-4-9.7l-4,9.7H223.9z"/>
</g>
<g transform="translate(38.682 9.874)">
	<path class="st4" d="M229.3,151.4L229.3,151.4c0.6-9.1,8-16,16.5-15.4c4,0,8,1.7,10.8,4.6l-4,5.1c-2.3-2.3-4.6-3.4-7.4-3.4
		c-5.1,0-8.5,4-8.5,9.1l0,0l0,0c-0.6,5.1,3.4,9.1,8.5,9.1c0,0,0,0,0.6,0c2.8,0,5.7-1.1,8-3.4l4,4.6c-5.7,6.3-15.4,7.4-22.2,1.7
		C231.6,160.6,229.3,156,229.3,151.4z"/>
</g>
<g transform="translate(43.694 9.874)">
	<path class="st4" d="M252.9,151.4L252.9,151.4c0.6-9.1,8-16,16.5-15.4c4,0,8,1.7,10.8,4.6l-4,5.1c-2.3-2.3-4.6-3.4-7.4-3.4
		c-5.1,0-8.5,4-8.5,9.1l0,0l0,0c-0.6,5.1,3.4,9.1,8.5,9.1c0,0,0,0,0.6,0c2.8,0,5.7-1.1,8-3.4l4,4.6c-5.7,6.3-15.4,7.4-22.2,1.7
		C255.1,160.6,252.9,156,252.9,151.4z"/>
	<path class="st4" d="M283.6,136.6h13.7c3.4,0,6.3,1.1,8.5,2.8c1.7,1.7,2.8,4.6,2.3,6.8l0,0c0,4-2.3,8-6.3,9.1l7.4,10.8h-8l-6.3-9.7
		h-5.1v9.1h-6.8L283.6,136.6L283.6,136.6z M296.7,151.4c3.4,0,5.1-1.7,5.1-4.6l0,0c0-2.8-1.7-4.6-5.1-4.6h-6.8v8.5L296.7,151.4
		L296.7,151.4z"/>
	<path class="st4" d="M312.7,136.6h22.8v5.7h-16v6.3h14.2v5.7h-14.2v6.3h16v5.7h-22.8V136.6z"/>
	<path class="st4" d="M338.9,136.6h12c8-0.6,15.4,5.7,16,13.7c0,0.6,0,0.6,0,1.1l0,0c0,8.5-6.8,14.8-14.8,14.8c-0.6,0-0.6,0-1.1,0
		h-12V136.6z M350.9,160.6c4.6,0,8.5-3.4,9.1-8c0-0.6,0-0.6,0-1.1l0,0c0-4.6-3.4-8.5-8-9.1h-0.6h-5.1v18.2H350.9z"/>
	<path class="st4" d="M370.8,136.6h6.8v29.6h-6.8V136.6z"/>
	<path class="st4" d="M389.6,142.9h-9.1v-6.3H405v6.3h-9.1v23.9h-6.8L389.6,142.9L389.6,142.9z"/>
	<path class="st4" d="M407.9,136.6h22.8v5.7h-16v6.3H429v5.7h-14.2v6.3h16v5.7h-22.8V136.6z"/>
	<path class="st4" d="M434.7,136.6h12c8-0.6,15.4,5.7,16,13.7c0,0.6,0,0.6,0,1.1l0,0c0,8.5-6.8,14.8-14.8,14.8c-0.6,0-0.6,0-1.1,0
		h-12V136.6z M446.1,160.6c4.6,0,8.5-3.4,9.1-8c0-0.6,0-0.6,0-1.1l0,0c0-4.6-3.4-8.5-8-9.1h-0.6h-5.1v18.2H446.1z"/>
</g>
<g transform="translate(33.713 18.227)">
	<path class="st4" d="M205.9,175.9h13.7c2.8,0,5.7,0.6,8,2.8c1.1,1.1,2.3,3.4,2.3,5.1l0,0c0,2.8-1.7,5.1-4,6.3
		c3.4,0.6,5.7,4,5.7,7.4l0,0c0,5.7-4.6,8-11.4,8h-14.2C205.9,205.5,205.9,175.9,205.9,175.9z M218.5,187.8c2.8,0,4.6-1.1,4.6-3.4
		l0,0c0-1.7-1.7-2.8-4.6-2.8h-5.7v6.3H218.5z M220.2,199.8c2.8,0,4.6-1.1,4.6-3.4l0,0c0-1.7-1.7-3.4-5.1-3.4h-6.8v6.8H220.2
		L220.2,199.8z"/>
	<path class="st4" d="M234.4,193v-17.1h6.8V193c0,5.1,2.3,7.4,6.3,7.4c4,0,6.3-2.3,6.3-7.4v-17.1h6.8V193c0,7.4-5.1,13.1-12.5,13.7
		c-7.4,0.6-13.1-5.1-13.7-12.5C234.4,193.5,234.4,193,234.4,193L234.4,193z"/>
	<path class="st4" d="M262.9,201.5l4-4.6c2.3,2.3,5.7,3.4,9.1,3.4c2.8,0,4.6-1.1,4.6-2.8l0,0c0-1.7-1.1-2.3-6.3-4
		c-6.3-1.7-9.7-3.4-9.7-9.1l0,0c0-5.1,4.6-9.1,9.7-9.1h0.6c4,0,8,1.1,10.8,4l-3.4,5.1c-2.3-1.7-5.1-2.8-8-2.8c-2.3,0-4,1.1-4,2.8
		l0,0c0,1.7,1.1,2.3,6.3,4c6.3,1.7,9.7,4,9.7,9.1l0,0c0,5.7-4.6,9.1-10.8,9.1C270.9,206.1,266.4,204.4,262.9,201.5z"/>
	<path class="st4" d="M290.9,175.9h6.8v29.6h-6.8V175.9z"/>
	<path class="st4" d="M302.3,175.9h6.3l14.2,18.2v-18.2h6.3v29.6h-5.7l-14.2-18.8v18.8h-6.3v-29.6H302.3z"/>
	<path class="st4" d="M334.2,175.9H357v5.7h-16v6.3h14.2v5.7H341v6.3h16v5.7h-22.8V175.9z"/>
</g>
<g transform="translate(60.401 18.227)">
	<path class="st4" d="M331.4,201.5l4-4.6c2.3,2.3,5.7,3.4,9.1,3.4c2.8,0,4.6-1.1,4.6-2.8l0,0c0-1.7-1.1-2.3-5.7-4
		c-5.7-1.7-9.7-3.4-9.7-9.1l0,0c0-5.1,4.6-9.1,9.7-9.1h0.6c4,0,8,1.1,10.8,4l-3.4,5.1c-2.3-1.7-5.1-2.8-8-2.8s-4,1.1-4,2.8l0,0
		c0,1.7,1.1,2.3,6.3,4c6.3,1.7,9.7,4,9.7,9.1l0,0c0,5.7-4.6,9.1-10.8,9.1C339.4,206.1,334.8,204.4,331.4,201.5z"/>
</g>
<g transform="translate(64.749 18.227)">
	<path class="st4" d="M351.8,201.5l4-4.6c2.3,2.3,5.7,3.4,9.1,3.4c2.8,0,4.6-1.1,4.6-2.8l0,0c0-1.7-1.1-2.3-5.7-4
		c-5.7-1.7-9.7-3.4-9.7-9.1l0,0c0-5.1,4.6-9.1,9.7-9.1h0.6c4,0,8,1.1,10.8,4l-3.4,5.1c-2.3-1.7-5.1-2.8-8-2.8s-4,1.1-4,2.8l0,0
		c0,1.7,1.1,2.3,6.3,4c6.3,1.7,9.7,4,9.7,9.1l0,0c0,5.7-4.6,9.1-10.8,9.1C359.8,206.1,355.2,204.4,351.8,201.5z"/>
</g>
</svg>
