<svg xmlns="http://www.w3.org/2000/svg" width="40.312" height="48.394" viewBox="0 0 40.312 48.394">
  <g id="icon_shield_mobile" transform="translate(-36.359 -23.599)">
    <path id="Path_16892" data-name="Path 16892" d="M76.592,31.568a1.008,1.008,0,0,0-1-.924c-12.044,0-18.265-6.661-18.325-6.728a1.038,1.038,0,0,0-1.495,0c-.061.067-6.228,6.728-18.325,6.728a1.008,1.008,0,0,0-1,.924c-.025.3-2.315,30.493,19.664,40.338a1.018,1.018,0,0,0,.825,0C78.907,62.062,76.617,31.872,76.592,31.568ZM56.515,69.876C38.347,61.386,38.221,37.605,38.4,32.649c10.088-.275,16.1-4.829,18.114-6.648,2.009,1.819,8.026,6.373,18.114,6.648C74.809,37.605,74.683,61.386,56.515,69.876Z" transform="translate(0 0)" fill="#a483d2"/>
    <path id="Path_16893" data-name="Path 16893" d="M93.451,87.535l-5.338,5.338L85.8,90.561a1.008,1.008,0,0,0-1.426,1.426L87.4,95.013a1.008,1.008,0,0,0,1.426,0l6.051-6.051a1.008,1.008,0,0,0-1.426-1.426Z" transform="translate(-32.606 -43.485)" fill="#9880c2"/>
    <path id="Path_16894" data-name="Path 16894" d="M73.891,58.582a12.1,12.1,0,1,0,12.1,12.1A12.115,12.115,0,0,0,73.891,58.582Zm0,22.187A10.085,10.085,0,1,1,83.976,70.684,10.1,10.1,0,0,1,73.891,80.769Z" transform="translate(-17.376 -23.903)" fill="#a483d2"/>
  </g>
</svg>
