<svg xmlns="http://www.w3.org/2000/svg" width="133.75" height="553.407" viewBox="0 0 133.75 553.407">
  <g id="mobile_sprite" transform="translate(-444.25 -481.5)">
    <g id="phone" transform="translate(424 866.676)">
      <path id="Path_16863" data-name="Path 16863" d="M19.8,16.7a.9.9,0,0,0-1.155.1L17.476,17.98c-.393.392-1.718-.1-4.26-2.638s-3.03-3.868-2.638-4.26L11.748,9.91a.9.9,0,0,0,.1-1.155C11.394,8.1,9.653,5.7,9.327,5.37c-.833-.833-2.511-.152-3.651.988-1.878,1.877.281,6.977,4.913,11.609,3.5,3.5,7.27,5.589,9.712,5.589a2.586,2.586,0,0,0,1.9-.676c1.14-1.14,1.822-2.818.988-3.651C22.862,18.9,20.462,17.163,19.8,16.7ZM21.615,22.3c-1.336,1.335-5.85-.32-10.443-4.913S4.924,8.277,6.26,6.942a3.464,3.464,0,0,1,2.1-1.112.534.534,0,0,1,.386.124c.232.232,1.8,2.362,2.431,3.273a.078.078,0,0,1-.01.1L9.994,10.5c-.939.938-.076,2.714,2.638,5.427s4.489,3.577,5.427,2.638l1.171-1.171a.078.078,0,0,1,.1-.01c.912.633,3.042,2.2,3.273,2.431.339.339-.027,1.522-.988,2.484Zm1.111-8.114a8.361,8.361,0,0,0-8.351-8.353.413.413,0,1,1,0-.825,9.187,9.187,0,0,1,9.176,9.178.413.413,0,1,1-.825,0Zm-2.487,0a5.871,5.871,0,0,0-5.863-5.866.413.413,0,0,1,0-.825,6.7,6.7,0,0,1,6.689,6.691.413.413,0,1,1-.825,0Zm-1.662,0a.413.413,0,0,1-.825,0,3.381,3.381,0,0,0-3.376-3.378.413.413,0,0,1,0-.825,4.207,4.207,0,0,1,4.2,4.2Z" transform="translate(16 -68)" fill="#8661bb"/>
    </g>
    <path id="right_arrow" data-name="right arrow" d="M20.608,12.237a.858.858,0,0,0-1.184,1.243l6.584,6.245H6.517a.859.859,0,0,0-.858.858,1,1,0,0,0,1.008.858H25.981l-6.557,6.245a.858.858,0,1,0,1.184,1.243L28.1,21.8a1.715,1.715,0,0,0-.015-2.442Z" transform="translate(439.341 642.634)" fill="#fff"/>
    <g id="dropdown" transform="translate(445 622.444) rotate(-90)">
      <path id="Chevron_Right" d="M.234,8.571l7.2,7.193a.808.808,0,0,0,1.144-1.141L1.948,8,8.572,1.378A.808.808,0,0,0,7.428.236L.233,7.429A.815.815,0,0,0,.234,8.571Z" transform="translate(0 0)" fill="#0c1b24"/>
    </g>
    <g id="check" transform="translate(427.707 681.399)">
      <g id="Group_4383" data-name="Group 4383" transform="translate(17.293 23.14)">
        <g id="Group_4382" data-name="Group 4382">
          <path id="Path_11947" data-name="Path 11947" d="M119.727,137.057a1.117,1.117,0,0,0-1.552,0h0L107.79,147.44l-3.68-3.68a1.117,1.117,0,0,0-1.607,1.553l.027.027L107,149.81a1.117,1.117,0,0,0,1.58,0l11.174-11.174A1.117,1.117,0,0,0,119.727,137.057Z" transform="translate(-102.19 -136.743)" fill="#fff"/>
        </g>
      </g>
    </g>
    <g id="error" transform="translate(440.363 740.534)">
      <path id="Path_16813" data-name="Path 16813" d="M27.406,25.878l-8.564-14.5a3.034,3.034,0,0,0-5.215,0l-8.564,14.5a2.919,2.919,0,0,0-.026,2.991A2.987,2.987,0,0,0,7.644,30.4h17.18a2.958,2.958,0,0,0,2.608-1.534A2.919,2.919,0,0,0,27.406,25.878Zm-1,2.4a1.827,1.827,0,0,1-1.559.92H7.619a1.815,1.815,0,0,1-1.559-2.71l8.615-14.521a1.779,1.779,0,0,1,1.559-.869,1.8,1.8,0,0,1,1.559.869l8.615,14.5A1.9,1.9,0,0,1,26.409,28.281Z" fill="#c70000"/>
      <path id="Path_16814" data-name="Path 16814" d="M47.693,31.5a.8.8,0,0,0-.793.793v6.417a.793.793,0,1,0,1.585,0V32.293A.8.8,0,0,0,47.693,31.5Z" transform="translate(-31.458 -16.078)" fill="#c70000"/>
      <path id="Path_16815" data-name="Path 16815" d="M47.693,68.5a.747.747,0,0,0-.793.682v.352a.8.8,0,0,0,1.585,0v-.352A.719.719,0,0,0,47.693,68.5Z" transform="translate(-31.458 -43.619)" fill="#c70000"/>
    </g>
    <g id="image_1" data-name="image 1" transform="translate(445.641 854.733)">
      <g id="Group_90" data-name="Group 90" transform="translate(0 0)">
        <g id="Group_87" data-name="Group 87">
          <path id="Path_16727" data-name="Path 16727" d="M1890.494,1675.389h4.081a2.116,2.116,0,0,0,1.939-1.36l.871-2.137a2.386,2.386,0,0,0-.025-1.852l-1.23-2.791a5.14,5.14,0,0,0-2.621-2.669,9.6,9.6,0,0,0-1.288-.469c-2.551-.684-7.117-1.714-9.174-2.311-2.336-.679-9.664-6.006-13.388-6.9a22.319,22.319,0,0,0-7.192-.75c-1.938.054-6.333.194-9.128.46s-5.48.59-7.206.941-3.4.633-3.4.633l.02.777s.675-.045.7.146a24.419,24.419,0,0,1-2.323,3.4,5.866,5.866,0,0,0-1.643,3.249c-.021,1.195.338,2.22.268,2.506s-1.632,1.378-1.51,2.365c.14,1.133.447,4.127.62,4.538s.888.556,1.791.53,2.589,1.592,2.589,1.592" transform="translate(-1838.239 -1654.118)" fill="#fff" stroke="#a483d2" stroke-linecap="round" stroke-linejoin="round" stroke-width="1.5"/>
        </g>
        <ellipse id="Ellipse_50" data-name="Ellipse 50" cx="5.215" cy="5.596" rx="5.215" ry="5.596" transform="translate(42.404 13.115)" fill="#fff" stroke="#a483d2" stroke-linecap="round" stroke-linejoin="round" stroke-width="1.5"/>
        <circle id="Ellipse_51" data-name="Ellipse 51" cx="5.596" cy="5.596" r="5.596" transform="translate(2.098 18.665) rotate(-45)" fill="#fff" stroke="#a483d2" stroke-linecap="round" stroke-linejoin="round" stroke-width="1.5"/>
        <path id="Path_16728" data-name="Path 16728" d="M3008.821,1916.007a.215.215,0,0,1,.045-.323.9.9,0,0,1,.5-.176,5.3,5.3,0,0,1,1.8.215,8.471,8.471,0,0,1,1.2.43c.381.164.871.384,1.45.669.291.269,1,1.859.835,1.859-1.147-.113-2.686-.229-3.426-.272a.923.923,0,0,1-.649-.33Z" transform="translate(-2956.079 -1903.737)" fill="#fff" stroke="#a483d2" stroke-linecap="round" stroke-linejoin="round" stroke-width="1.5"/>
        <path id="Path_16729" data-name="Path 16729" d="M3069.584,2033.061l-.194-.519.753-1.468a.406.406,0,0,1,.4-.228l2.773.255c0,.008,0,.014,0,.022a14.79,14.79,0,0,1-.752,2.006c-.551.06-1.676.18-2.5.248A.468.468,0,0,1,3069.584,2033.061Z" transform="translate(-3013.974 -2013.886)" fill="#fff" stroke="#a483d2" stroke-linecap="round" stroke-linejoin="round" stroke-width="1.5"/>
        <g id="Group_89" data-name="Group 89" transform="translate(10.183 2.111)">
          <g id="Group_88" data-name="Group 88">
            <path id="Path_16730" data-name="Path 16730" d="M2090.465,1707.2c-4.427-.3-8.231-.48-12.672-.534-3.568-.065-8.387.028-11.961.2a7.917,7.917,0,0,1-.951-.707c-.192-.17-.611-.625-.317-1.007a22.558,22.558,0,0,1,1.766-1.784c.32-.289,1.08-.96,1.458-1.291a1,1,0,0,1,.513-.232c2.067-.292,5.333-.658,7.795-.741,3.166-.1,4.109-.1,5.514-.059a14.512,14.512,0,0,1,1.59.124,15.948,15.948,0,0,1,3.1.976,22.991,22.991,0,0,1,2.408,1.038,39.466,39.466,0,0,1,3.584,1.957q.436.268.912.579" transform="translate(-2064.462 -1701.024)" fill="#fff" stroke="#a483d2" stroke-linecap="round" stroke-linejoin="round" stroke-width="1.5"/>
          </g>
        </g>
        <path id="Path_16731" data-name="Path 16731" d="M2646.539,1805.863a3.883,3.883,0,0,0-3.254-.246,1.484,1.484,0,0,0-1.215,1.3,1.632,1.632,0,0,0,.756,1.067,3.945,3.945,0,0,0,1.723.74,2.95,2.95,0,0,0,1.905-.329A2,2,0,0,0,2646.539,1805.863Z" transform="translate(-2605.888 -1798.571)" fill="#fff" stroke="#a483d2" stroke-linecap="round" stroke-linejoin="round" stroke-width="1.5"/>
        <path id="Path_16732" data-name="Path 16732" d="M1867.3,1846.128a6.026,6.026,0,0,0,.7,1.271q-1.481.035-2.963.089l-.038-.294a2.849,2.849,0,0,1-.007-.634,3.658,3.658,0,0,1,.3-1.039l.014-.033q.909-.03,1.818-.053A2.577,2.577,0,0,0,1867.3,1846.128Z" transform="translate(-1863.771 -1836.824)" fill="#fff" stroke="#a483d2" stroke-linecap="round" stroke-linejoin="round" stroke-width="1.5"/>
        <line id="Line_7" data-name="Line 7" x1="28.018" transform="translate(14.964 21.271)" fill="#fff" stroke="#a483d2" stroke-linecap="round" stroke-linejoin="round" stroke-width="1.5"/>
        <line id="Line_8" data-name="Line 8" y2="12.056" transform="translate(24.678 4.139)" fill="#fff" stroke="#a483d2" stroke-linecap="round" stroke-linejoin="round" stroke-width="1.5"/>
      </g>
      <path id="Path_16817" data-name="Path 16817" d="M3.374,0A3.374,3.374,0,1,1,0,3.374,3.374,3.374,0,0,1,3.374,0Z" transform="matrix(0.973, -0.23, 0.23, 0.973, 43.559, 16.202)" fill="#fff" stroke="#a483d2" stroke-linecap="round" stroke-width="1.5"/>
      <circle id="Ellipse_53" data-name="Ellipse 53" cx="3.374" cy="3.374" r="3.374" transform="translate(5.24 18.665) rotate(-45)" fill="#fff" stroke="#a483d2" stroke-linecap="round" stroke-linejoin="round" stroke-width="1.5"/>
    </g>
    <g id="image_2" data-name="image 2" transform="translate(445.641 914.05)">
      <g id="Group_19553" data-name="Group 19553">
        <path id="Path_16825" data-name="Path 16825" d="M1024.493,1743.224v2.007a1.182,1.182,0,0,1-1.094,1.249h-3.927a1.525,1.525,0,0,1-1.409-1.659l.387-13.4" transform="translate(-1016.217 -1707.385)" fill="#fff" stroke="#a483d2" stroke-linecap="round" stroke-linejoin="round" stroke-width="1.5"/>
        <path id="Path_16826" data-name="Path 16826" d="M2196.989,1743.224v2.007a1.183,1.183,0,0,0,1.094,1.249h3.927a1.525,1.525,0,0,0,1.409-1.659l-.387-13.4" transform="translate(-2154.869 -1707.385)" fill="#fff" stroke="#a483d2" stroke-linecap="round" stroke-linejoin="round" stroke-width="1.5"/>
        <path id="Path_16827" data-name="Path 16827" d="M1028.913,1027.934a3.564,3.564,0,0,0-2.94,1.659c-3.053,4.511-5.822,11.9-6.579,13.988a2.081,2.081,0,0,1-.653.932l-1.427,1.162a1.908,1.908,0,0,0-.653,1.654l1.373,14.935a1.566,1.566,0,0,0,1.477,1.51H1060.6a1.566,1.566,0,0,0,1.477-1.51l1.373-14.935a1.909,1.909,0,0,0-.653-1.654l-1.427-1.162a2.082,2.082,0,0,1-.653-.932c-.757-2.089-3.526-9.477-6.579-13.988a3.563,3.563,0,0,0-2.94-1.659Z" transform="translate(-1014.855 -1027.934)" fill="#fff" stroke="#a483d2" stroke-linecap="round" stroke-linejoin="round" stroke-width="1.5"/>
        <path id="Path_16828" data-name="Path 16828" d="M1089.877,1556.1l4.022.955c1.18.28,2.426,1.92,3.14,3.01a.553.553,0,0,1-.437.878l-8.109-.838a1.107,1.107,0,0,1-.926-1.039,3.053,3.053,0,0,1,.658-2.488A1.694,1.694,0,0,1,1089.877,1556.1Z" transform="translate(-1083.322 -1538.008)" fill="#fff" stroke="#a483d2" stroke-linecap="round" stroke-linejoin="round" stroke-width="1.5"/>
        <path id="Path_16829" data-name="Path 16829" d="M968.784,1355.537v-2.948a.587.587,0,0,0-.572-.6h-2.129a1.973,1.973,0,0,0-1.909,1.646l-.1.532a.816.816,0,0,0,.7.979Z" transform="translate(-964.059 -1340.918)" fill="#fff" stroke="#a483d2" stroke-linecap="round" stroke-linejoin="round" stroke-width="1.5"/>
        <path id="Path_16830" data-name="Path 16830" d="M1267.3,1108.146l-3.695-9.241a2.647,2.647,0,0,0-2.275-1.931h-19.775a2.647,2.647,0,0,0-2.275,1.931l-3.695,9.241c-.193.492.05,1.1.437,1.1h0c12.138.988,18.917,1.261,29.785.171l1.055-.171C1267.252,1109.251,1267.494,1108.637,1267.3,1108.146Z" transform="translate(-1226.247 -1094.614)" fill="#fff" stroke="#a483d2" stroke-linecap="round" stroke-linejoin="round" stroke-width="1.5"/>
        <path id="Path_16831" data-name="Path 16831" d="M2042.132,1556.1l-4.022.955c-1.18.28-2.426,1.92-3.14,3.01a.553.553,0,0,0,.437.878l8.11-.838a1.107,1.107,0,0,0,.927-1.039,3.053,3.053,0,0,0-.658-2.488A1.694,1.694,0,0,0,2042.132,1556.1Z" transform="translate(-1998.291 -1538.008)" fill="#fff" stroke="#a483d2" stroke-linecap="round" stroke-linejoin="round" stroke-width="1.5"/>
        <path id="Path_16832" data-name="Path 16832" d="M1493.851,1709.629h-13.576c-.488-.024-.855.316-.705.654l.72,1.626a3.031,3.031,0,0,0,2.635,1.531h8.276a3.031,3.031,0,0,0,2.635-1.531l.72-1.626C1494.706,1709.945,1494.339,1709.6,1493.851,1709.629Z" transform="translate(-1461.926 -1686.339)" fill="#fff" stroke="#a483d2" stroke-linecap="round" stroke-linejoin="round" stroke-width="1.5"/>
        <path id="Path_16833" data-name="Path 16833" d="M2303.968,1355.537v-2.948a.587.587,0,0,1,.572-.6h2.129a1.973,1.973,0,0,1,1.909,1.646l.1.532a.816.816,0,0,1-.7.979Z" transform="translate(-2258.193 -1340.918)" fill="#fff" stroke="#a483d2" stroke-linecap="round" stroke-linejoin="round" stroke-width="1.5"/>
      </g>
      <g id="Group_19554" data-name="Group 19554" transform="translate(10.267 31.165)">
        <line id="Line_25" data-name="Line 25" x2="13.187" y2="0.799" transform="translate(0 0)" fill="#fff" stroke="#a483d2" stroke-linecap="round" stroke-linejoin="round" stroke-width="1.5"/>
        <line id="Line_26" data-name="Line 26" x1="13.187" y2="0.799" transform="translate(16.554 0)" fill="#fff" stroke="#a483d2" stroke-linecap="round" stroke-linejoin="round" stroke-width="1.5"/>
      </g>
      <path id="Path_16834" data-name="Path 16834" d="M1753.228,1232.446c.188-.106.34,0,.333.42a12.312,12.312,0,0,1-.288,1.425.39.39,0,0,1-.4.305,1.712,1.712,0,0,1-.1.34,2.988,2.988,0,0,1-1.311,1.491c-.287.163-.547.307-.547.307a1.71,1.71,0,0,1-1.807-.078l-.656-.462a2.451,2.451,0,0,1-1.017-1.565q-.011-.064-.02-.128a.39.39,0,0,1-.385-.319,12.339,12.339,0,0,1-.238-1.434c.007-.423.163-.521.347-.408" transform="translate(-1720.055 -1225.315)" fill="#fff" stroke="#a483d2" stroke-linecap="round" stroke-linejoin="round" stroke-width="1.5"/>
      <g id="Group_19555" data-name="Group 19555" transform="translate(23.73 11.017)">
        <path id="Path_16835" data-name="Path 16835" d="M1663.31,1350.416l-.014.8a.867.867,0,0,1-.64.822,15.67,15.67,0,0,0-2.958.749c-.992.557-.855,1.635-1.031,2.1" transform="translate(-1658.666 -1350.416)" fill="#fff" stroke="#a483d2" stroke-linecap="round" stroke-linejoin="round" stroke-width="1.5"/>
        <path id="Path_16836" data-name="Path 16836" d="M1894.63,1355.828c-.17-.446-.154-1.326-1.3-1.5a22.544,22.544,0,0,1-2.709-.6.867.867,0,0,1-.611-.844l.014-.8" transform="translate(-1882.105 -1352.031)" fill="#fff" stroke="#a483d2" stroke-linecap="round" stroke-linejoin="round" stroke-width="1.5"/>
      </g>
      <path id="Path_16837" data-name="Path 16837" d="M1779.964,1398.013a3.318,3.318,0,0,1-4.525-.079" transform="translate(-1747.72 -1385.294)" fill="#fff" stroke="#a483d2" stroke-linecap="round" stroke-linejoin="round" stroke-width="1.5"/>
      <path id="Path_16838" data-name="Path 16838" d="M1749.146,1099.041l.732,1.034a4.134,4.134,0,0,1-.069,3.957l-.908-2.594-2.624-.331a1.293,1.293,0,0,0-1.6,1.208h0c-.635.152-.864,1.919-.864,1.919a9.669,9.669,0,0,1-.508-2.234,2.987,2.987,0,0,1,1.692-2.96Z" transform="translate(-1716.668 -1096.612)" fill="#fff" stroke="#a483d2" stroke-linecap="round" stroke-linejoin="round" stroke-width="1.5"/>
    </g>
    <g id="image_3" data-name="image 3" transform="translate(-2294.549 294.068)">
      <g id="Group_19567" data-name="Group 19567" transform="translate(2739.549 691.577)">
        <path id="Path_16850" data-name="Path 16850" d="M2739.549,874.8v44.892a1.806,1.806,0,0,0,1.807,1.808h56.358a1.81,1.81,0,0,0,1.813-1.808V874.8a1.815,1.815,0,0,0-1.813-1.813h-56.358A1.81,1.81,0,0,0,2739.549,874.8Zm4.706,8.689a1.091,1.091,0,0,1,1.085-1.091h48.4a1.091,1.091,0,0,1,1.085,1.091V915.7a1.087,1.087,0,0,1-1.085,1.086h-48.4a1.087,1.087,0,0,1-1.085-1.086Zm29.971,12.916a10.129,10.129,0,0,0,1.57,5.968c.429.571.813,1.065,1.172,1.48,1.156,1.338,2.07,1.9,3.514,1.9,1.888,0,2.873-.964,4.68-3.378a10.151,10.151,0,0,0,1.576-5.968v-.3a1.094,1.094,0,0,0,.666-1.1,6.522,6.522,0,0,0-6.705-6.266h-.859a6.71,6.71,0,0,0-6.149,4.145,2.171,2.171,0,0,0,.535,2.418Z" transform="translate(-2739.549 -872.983)" fill="#fff" stroke="#a483d2" stroke-linecap="round" stroke-linejoin="round" stroke-width="1.5"/>
        <g id="Group_19566" data-name="Group 19566" transform="translate(4.707 4.707)">
          <line id="Line_29" data-name="Line 29" x1="12.219" transform="translate(38.346 0)" fill="#fff" stroke="#a483d2" stroke-linecap="round" stroke-linejoin="round" stroke-width="1.5"/>
          <line id="Line_30" data-name="Line 30" x2="12.219" transform="translate(0 0)" fill="#fff" stroke="#a483d2" stroke-linecap="round" stroke-linejoin="round" stroke-width="1.5"/>
          <path id="Path_16851" data-name="Path 16851" d="M3115.326,952.43h15.447" transform="translate(-3097.767 -952.43)" fill="#fff" stroke="#a483d2" stroke-linecap="round" stroke-linejoin="round" stroke-width="1.5"/>
        </g>
      </g>
      <g id="Group_19572" data-name="Group 19572" transform="translate(2744.255 700.988)">
        <path id="Path_16852" data-name="Path 16852" d="M3102.9,1066.217h32.658a1.087,1.087,0,0,0,1.085-1.086v-32.219a1.091,1.091,0,0,0-1.085-1.091h-23.085Zm13.148-20.388v-1.106a2.173,2.173,0,0,1-.535-2.418,6.711,6.711,0,0,1,6.15-4.145h.858a6.522,6.522,0,0,1,6.706,6.266,1.1,1.1,0,0,1-.667,1.1v.3a10.149,10.149,0,0,1-1.575,5.968c-1.808,2.414-2.792,3.378-4.681,3.378-1.444,0-2.358-.561-3.514-1.9-.359-.414-.743-.909-1.172-1.479A10.127,10.127,0,0,1,3116.048,1045.828Z" transform="translate(-3086.076 -1031.822)" fill="#fff" stroke="#a483d2" stroke-linecap="round" stroke-linejoin="round" stroke-width="1.5"/>
        <path id="Path_16853" data-name="Path 16853" d="M3313.717,1145.329v.005a2.1,2.1,0,0,0,.7.439,6.393,6.393,0,0,0,4.3-.081c.005,0,.005.005.01.005a5.467,5.467,0,0,0,1.03.55,2.648,2.648,0,0,0,2.807-.348h.005l2.6.167c.106.035.207.071.307.1a1.095,1.095,0,0,0,1.419-1.136,6.523,6.523,0,0,0-6.706-6.266h-.858a6.712,6.712,0,0,0-6.15,4.146A2.172,2.172,0,0,0,3313.717,1145.329Z" transform="translate(-3283.745 -1132.428)" fill="#efeff2" stroke="#a483d2" stroke-linecap="round" stroke-linejoin="round" stroke-width="1.5"/>
        <path id="Path_16854" data-name="Path 16854" d="M3326.2,1256.7c.429.571.813,1.065,1.171,1.479,1.156,1.338,2.07,1.9,3.514,1.9,1.889,0,2.873-.964,4.681-3.378a10.153,10.153,0,0,0,1.575-5.968v-.3a1.094,1.094,0,0,1-.752.035c-.1-.03-.2-.066-.308-.1l-2.6-.167h-.005a2.648,2.648,0,0,1-2.808.348,5.453,5.453,0,0,1-1.03-.55c-.005,0-.005,0-.01,0a6.393,6.393,0,0,1-4.3.081,2.1,2.1,0,0,1-.7-.439v1.1A10.128,10.128,0,0,0,3326.2,1256.7Z" transform="translate(-3294.653 -1236.723)" fill="none" stroke="#a483d2" stroke-linecap="round" stroke-linejoin="round" stroke-width="1.5"/>
        <g id="Group_19570" data-name="Group 19570" transform="translate(26.653 10.623)">
          <g id="Group_19569" data-name="Group 19569" transform="translate(3.308)">
            <path id="Path_16855" data-name="Path 16855" d="M3326.2,1256.7c.429.571.813,1.065,1.171,1.479,1.156,1.338,2.07,1.9,3.514,1.9,1.889,0,2.873-.964,4.681-3.378a10.153,10.153,0,0,0,1.575-5.968v-.3a1.094,1.094,0,0,1-.752.035c-.1-.03-.2-.066-.308-.1l-2.6-.167h-.005a2.648,2.648,0,0,1-2.808.348,5.453,5.453,0,0,1-1.03-.55c-.005,0-.005,0-.01,0a6.393,6.393,0,0,1-4.3.081,2.1,2.1,0,0,1-.7-.439v1.1A10.128,10.128,0,0,0,3326.2,1256.7Z" transform="translate(-3324.614 -1247.347)" fill="#fff" stroke="#a483d2" stroke-linecap="round" stroke-linejoin="round" stroke-width="1.5"/>
            <g id="Group_19568" data-name="Group 19568" transform="translate(3.167)">
              <path id="Path_16856" data-name="Path 16856" d="M3474.262,1245.624a3.237,3.237,0,0,0,.752-.853" transform="translate(-3468.561 -1242.777)" fill="none" stroke="#a483d2" stroke-linecap="round" stroke-linejoin="round" stroke-width="1.5"/>
              <path id="Path_16857" data-name="Path 16857" d="M3379.842,1218.516a4.662,4.662,0,0,1-1.788-2.292" transform="translate(-3378.054 -1215.921)" fill="none" stroke="#a483d2" stroke-linecap="round" stroke-linejoin="round" stroke-width="1.5"/>
              <path id="Path_16858" data-name="Path 16858" d="M3462.026,1214.126a6.6,6.6,0,0,1-3.529-3.014" transform="translate(-3453.731 -1211.112)" fill="none" stroke="#a483d2" stroke-linecap="round" stroke-linejoin="round" stroke-width="1.5"/>
            </g>
          </g>
          <path id="Path_16859" data-name="Path 16859" d="M3486.973,1393.881s-.638,4.013.569,4.737,5.491,2.655,5.491,2.655" transform="translate(-3473.887 -1383.051)" fill="none" stroke="#a483d2" stroke-linecap="round" stroke-linejoin="round" stroke-width="1.5"/>
          <path id="Path_16860" data-name="Path 16860" d="M3274.84,1393.881s.638,4.013-.569,4.737-5.49,2.655-5.49,2.655" transform="translate(-3268.781 -1383.051)" fill="none" stroke="#a483d2" stroke-linecap="round" stroke-linejoin="round" stroke-width="1.5"/>
          <path id="Path_16861" data-name="Path 16861" d="M3361.451,1473.827a5.637,5.637,0,0,0,8.165,0" transform="translate(-3355.96 -1458.261)" fill="none" stroke="#a483d2" stroke-linecap="round" stroke-linejoin="round" stroke-width="1.5"/>
        </g>
        <g id="Group_19571" data-name="Group 19571" transform="translate(0 0)">
          <path id="Path_16862" data-name="Path 16862" d="M2818.968,1032.913v32.219a1.087,1.087,0,0,0,1.085,1.086h15.738l9.573-34.395h-25.311A1.091,1.091,0,0,0,2818.968,1032.913Z" transform="translate(-2818.968 -1031.822)" fill="#efeff2" stroke="#a483d2" stroke-linecap="round" stroke-linejoin="round" stroke-width="1.5"/>
          <line id="Line_31" data-name="Line 31" x1="14.12" transform="translate(5.492 5.493)" fill="none" stroke="#a483d2" stroke-linecap="round" stroke-linejoin="round" stroke-width="1.5"/>
          <line id="Line_32" data-name="Line 32" x1="7.602" transform="translate(5.492 10.984)" fill="none" stroke="#a483d2" stroke-linecap="round" stroke-linejoin="round" stroke-width="1.5"/>
          <line id="Line_33" data-name="Line 33" x1="10.861" transform="translate(5.492 16.475)" fill="none" stroke="#a483d2" stroke-linecap="round" stroke-linejoin="round" stroke-width="1.5"/>
          <line id="Line_34" data-name="Line 34" x1="7.602" transform="translate(5.492 21.966)" fill="none" stroke="#a483d2" stroke-linecap="round" stroke-linejoin="round" stroke-width="1.5"/>
        </g>
      </g>
    </g>
    <g id="insure-logo" transform="translate(445 481.5)">
      <g id="Layer_2" data-name="Layer 2">
        <g id="Layer_1-2" data-name="Layer 1-2">
          <path id="Path_2016" data-name="Path 2016" d="M0,2.6A2.192,2.192,0,0,1,.852.777,2.864,2.864,0,0,1,2.923.046a2.862,2.862,0,0,1,2.07.731,2.5,2.5,0,0,1,.121,3.531h0l-.121.122a2.865,2.865,0,0,1-2.07.73A2.867,2.867,0,0,1,.852,4.43,2.837,2.837,0,0,1,0,2.6ZM5.6,23.671H.365V6.865H5.6Z" transform="translate(0 -0.046)" fill="#010852"/>
          <path id="Path_2017" data-name="Path 2017" d="M14.614,8.137l.122,1.949a6,6,0,0,1,4.749-2.314,4.644,4.644,0,0,1,3.9,1.583,7.359,7.359,0,0,1,1.34,4.749V24.942H19.485V14.348A2.529,2.529,0,0,0,19,12.521a2.524,2.524,0,0,0-1.827-.609,2.508,2.508,0,0,0-2.314,1.218V24.942H9.621V8.137Z" transform="translate(-1.584 -1.318)" fill="#010852"/>
          <path id="Path_2018" data-name="Path 2018" d="M39.066,20.217a1.17,1.17,0,0,0-.73-1.1,17.6,17.6,0,0,0-2.679-.853,13.847,13.847,0,0,1-3.166-1.1,5.212,5.212,0,0,1-1.949-1.7,4.012,4.012,0,0,1-.73-2.314A4.367,4.367,0,0,1,31.76,9.379a7.858,7.858,0,0,1,4.993-1.461,9,9,0,0,1,5.358,1.461,4.753,4.753,0,0,1,2.07,4.019H38.945a1.864,1.864,0,0,0-2.071-2.071,1.831,1.831,0,0,0-1.339.487,1.455,1.455,0,0,0-.609,1.1,1.17,1.17,0,0,0,.731,1.1,11.3,11.3,0,0,0,2.192.731,10.974,10.974,0,0,1,2.679.731C43.085,16.32,44.3,17.9,44.3,20.1a4.485,4.485,0,0,1-2.071,3.775A8.864,8.864,0,0,1,37,25.332a10.553,10.553,0,0,1-3.9-.73,7.556,7.556,0,0,1-2.679-2.07,4.886,4.886,0,0,1-.974-2.8h4.871a2.046,2.046,0,0,0,.731,1.705A3.091,3.091,0,0,0,37,21.922a2.066,2.066,0,0,0,1.583-.487A1.563,1.563,0,0,0,39.066,20.217Z" transform="translate(-4.847 -1.342)" fill="#010852"/>
          <path id="Path_2020" data-name="Path 2020" d="M81.245,12.91l-1.705-.121c-1.705,0-2.679.487-3.166,1.583V24.966H71.137V8.161h4.871l.122,2.192a3.855,3.855,0,0,1,3.653-2.435,3.1,3.1,0,0,1,1.462.243Z" transform="translate(-11.71 -1.342)" fill="#010852"/>
          <path id="Path_2021" data-name="Path 2021" d="M92.32,25.332a8.36,8.36,0,0,1-6.211-2.313,8.077,8.077,0,0,1-2.435-5.967v-.487a10.648,10.648,0,0,1,.974-4.506,7.473,7.473,0,0,1,2.8-3.044,8.365,8.365,0,0,1,4.384-1.1,7.334,7.334,0,0,1,5.6,2.192A8.766,8.766,0,0,1,99.505,16.2v2.07H89.154a3.853,3.853,0,0,0,1.217,2.192,3.925,3.925,0,0,0,2.436.853,4.886,4.886,0,0,0,3.9-1.705l2.435,2.8a7.512,7.512,0,0,1-2.8,2.192A15.544,15.544,0,0,1,92.32,25.332Zm-.487-13.4c-1.583,0-2.436.974-2.679,3.045H94.39v-.366a3.1,3.1,0,0,0-.609-1.948A2.987,2.987,0,0,0,91.833,11.936Z" transform="translate(-13.774 -1.342)" fill="#010852"/>
          <path id="Path_2022" data-name="Path 2022" d="M104.665,27.429a.853.853,0,1,1,1.462.609,1.105,1.105,0,0,1-1.218,0C104.787,27.794,104.665,27.673,104.665,27.429Z" transform="translate(-17.23 -4.413)" fill="#010852"/>
          <path id="Path_2023" data-name="Path 2023" d="M112.67,25.387a3.645,3.645,0,0,0,2.191-.73,2.727,2.727,0,0,0,.975-1.827h1.217a3.283,3.283,0,0,1-.608,1.827A4.242,4.242,0,0,1,114.861,26a3.994,3.994,0,0,1-2.07.487,4.248,4.248,0,0,1-3.409-1.461A5.874,5.874,0,0,1,108.164,21v-.488a6.315,6.315,0,0,1,.609-2.922,4.887,4.887,0,0,1,1.583-1.949,4.389,4.389,0,0,1,2.435-.73,4.453,4.453,0,0,1,3.045,1.1,3.965,3.965,0,0,1,1.217,2.8h-1.217a2.991,2.991,0,0,0-3.045-2.923h-.121a2.914,2.914,0,0,0-2.558,1.218,5.51,5.51,0,0,0-.852,3.288v.365a5.052,5.052,0,0,0,.852,3.288A2.64,2.64,0,0,0,112.67,25.387Z" transform="translate(-17.806 -2.494)" fill="#010852"/>
          <path id="Path_2024" data-name="Path 2024" d="M120.263,20.54a7.225,7.225,0,0,1,.609-2.8,4.548,4.548,0,0,1,4.262-2.679,4.228,4.228,0,0,1,3.531,1.583,6.488,6.488,0,0,1,1.34,4.14v.244a8.374,8.374,0,0,1-.609,2.922,4.428,4.428,0,0,1-1.705,1.948,4.785,4.785,0,0,1-2.557.731,4.229,4.229,0,0,1-3.531-1.583,6.488,6.488,0,0,1-1.34-4.14Zm1.218.366a5.543,5.543,0,0,0,.974,3.288,3.475,3.475,0,0,0,4.871.487h0c.122-.122.365-.244.487-.487a4.953,4.953,0,0,0,.974-3.41V20.54a4.943,4.943,0,0,0-.487-2.313,3.361,3.361,0,0,0-1.339-1.583,3.676,3.676,0,0,0-1.949-.609,3.489,3.489,0,0,0-2.679,1.218,4.953,4.953,0,0,0-.974,3.409l.122.244Z" transform="translate(-19.797 -2.518)" fill="#010852"/>
          <path id="Path_2025" data-name="Path 2025" d="M135.645,15.182v1.827a3.7,3.7,0,0,1,1.583-1.461,4,4,0,0,1,2.07-.487,3.1,3.1,0,0,1,3.288,2.192,3.959,3.959,0,0,1,1.583-1.584,4.965,4.965,0,0,1,2.192-.608c2.314,0,3.531,1.339,3.653,3.9v7.307H148.8V18.957a3.62,3.62,0,0,0-.608-2.192,2.509,2.509,0,0,0-2.071-.73,2.935,2.935,0,0,0-2.192.852,2.6,2.6,0,0,0-.974,2.07v7.307h-1.217V18.957a2.509,2.509,0,0,0-.731-2.07,2.677,2.677,0,0,0-2.07-.73,3.371,3.371,0,0,0-1.949.608,4.457,4.457,0,0,0-1.217,1.949v7.55h-1.218V15.182Z" transform="translate(-22.149 -2.518)" fill="#010852"/>
          <path id="Path_1940" data-name="Path 1940" d="M57.965,25.623c-4.018,0-7.184-2.8-7.428-6.332V8.209h0a.869.869,0,0,0-.974.853v10.35A6.691,6.691,0,0,0,54.312,25.5a6.4,6.4,0,0,0,4.506.122Z" transform="translate(-8.159 -1.39)" fill="#010852"/>
          <g id="Group_91" data-name="Group 91" transform="translate(50.293 6.819)">
            <path id="Path_1740" data-name="Path 1740" d="M60.74,14.785l3.9-2.557-2.8,3.531L66.95,16V9.062a.815.815,0,0,0-.731-.853H60.5Z" transform="translate(-60.252 -8.209)" fill="#0689d6"/>
            <path id="Path_1741" data-name="Path 1741" d="M61.787,18.1l2.8,3.531-3.9-2.557-.488,7.55a6.751,6.751,0,0,0,6.454-6.454V17.976Z" transform="translate(-60.204 -9.817)" fill="#0689d6"/>
          </g>
          <g id="Group_92" data-name="Group 92" transform="translate(43.474 6.819)">
            <path id="Path_1742" data-name="Path 1742" d="M57.4,15.637l-2.8-3.531,3.9,2.557.365-6.454H52.772c-.487,0-.731.366-.731.853v7.063Z" transform="translate(-52.041 -8.209)" fill="#010852"/>
            <path id="Path_1743" data-name="Path 1743" d="M58.373,19.194,54.6,21.751l2.8-3.531-5.358-.244v2.192a6.791,6.791,0,0,0,6.7,6.454h.121Z" transform="translate(-52.041 -9.817)" fill="#010852"/>
          </g>
          <path id="Path_9040" data-name="Path 9040" d="M60.444,16.49l2.923,3.532-4.019-2.557-.365,7.428h-.122l-.487-7.307L54.6,20.143l2.8-3.653-5.358-.244V16l5.358-.365-2.8-3.41,3.775,2.436.365-6.454h.244l.365,6.576,3.9-2.679-2.8,3.653L65.558,16l-.122.244Z" transform="translate(-8.567 -1.39)" fill="#fff"/>
        </g>
      </g>
    </g>
    <g id="BBB_logo" data-name="BBB logo" transform="translate(396.922 449.929)">
      <path id="Path_16864" data-name="Path 16864" d="M54.07,89.6h96.776a5.978,5.978,0,0,1,5.987,5.987v29.3a5.978,5.978,0,0,1-5.987,5.987H54.07a5.978,5.978,0,0,1-5.987-5.987V95.61A5.9,5.9,0,0,1,54.07,89.6Z" transform="translate(0)" fill="#0e7c98"/>
      <path id="Path_16865" data-name="Path 16865" d="M86.408,91.4H55.4A5.55,5.55,0,0,0,49.8,97h0v29.3a5.55,5.55,0,0,0,5.6,5.6h31.01Z" transform="translate(-1.328 -1.389)" fill="#fff" fill-rule="evenodd"/>
      <path id="Path_16866" data-name="Path 16866" d="M110.049,150.1l-1.691,2.354a3.186,3.186,0,0,0,.526,4.159l3.245,2.354c.526.388.64.777.388,1.165l.526.388,1.691-2.354a3.082,3.082,0,0,0-.526-4.3.134.134,0,0,1-.137-.137l-3.245-2.331a.827.827,0,0,1-.251-1.165C110.438,150.488,110.049,150.1,110.049,150.1Z" transform="translate(-46.084 -46.675)" fill="#0e7c98" fill-rule="evenodd"/>
      <path id="Path_16867" data-name="Path 16867" d="M117.751,103.3l-2.742,3.771a4.451,4.451,0,0,0,.914,5.987l4.433,3.245a2.55,2.55,0,0,1,.388,3.245l.388.251,3.131-4.3a4.471,4.471,0,0,0-.914-6.376h0l-4.822-3.473a1.474,1.474,0,0,1-.526-1.942.134.134,0,0,1,.137-.137Z" transform="translate(-51.044 -10.569)" fill="#0e7c98" fill-rule="evenodd"/>
      <path id="Path_16868" data-name="Path 16868" d="M98.2,201.854h3.656l.64,2.217h5.85l.64-2.217h3.656l-.526-1.554H98.7Z" transform="translate(-38.668 -85.403)" fill="#0e7c98" fill-rule="evenodd"/>
      <path id="Path_16869" data-name="Path 16869" d="M177.926,254.711h0c0-.137,0-.137-.137-.137h-.251v-.137h.411V254.3H177.4v.411h.411v.137h-.274a.134.134,0,0,1-.137-.137v.137a.134.134,0,0,1,.137.137h.411a1.311,1.311,0,0,1-.023-.274Z" transform="translate(-99.77 -127.064)" fill="#006697" fill-rule="evenodd"/>
      <path id="Path_16870" data-name="Path 16870" d="M181.677,254.114V253.2h-.137l-.251.526h0l-.251-.526H180.9v.914h.137v-.64h0l.251.526.251-.526h0v.64Z" transform="translate(-102.47 -126.215)" fill="#006697" fill-rule="evenodd"/>
      <path id="Path_16871" data-name="Path 16871" d="M89.45,227.962c-.137-1.051-.526-1.3-1.44-1.691a1.762,1.762,0,0,0,1.051-1.691c0-1.554-1.165-2.079-2.605-2.079H82.8v7.952h3.656C88.01,230.429,89.724,229.79,89.45,227.962Zm-4.936-3.908h1.942c.526,0,.914.251.914.777s-.251.914-.777.914H84.377v-1.691Zm2.079,4.822H84.377v-1.828h2.217C88.147,227.185,88.147,228.876,86.593,228.876Z" transform="translate(-26.787 -102.53)" fill="#0e7c98" fill-rule="evenodd"/>
      <path id="Path_16872" data-name="Path 16872" d="M121.95,227.962c-.137-1.051-.526-1.3-1.44-1.691a1.762,1.762,0,0,0,1.051-1.691c0-1.554-1.165-2.079-2.605-2.079H115.3v7.952h3.656C120.51,230.429,122.2,229.79,121.95,227.962Zm-5.073-3.908h1.942c.526,0,.914.251.914.777s-.251.914-.777.914H116.74v-1.691Zm2.217,4.822h-2.217v-1.828h2.217c1.554.137,1.417,1.828,0,1.828Z" transform="translate(-51.86 -102.53)" fill="#0e7c98" fill-rule="evenodd"/>
      <path id="Path_16873" data-name="Path 16873" d="M154.45,227.962c-.137-1.051-.526-1.3-1.44-1.691a1.762,1.762,0,0,0,1.051-1.691c0-1.554-1.165-2.079-2.605-2.079H147.8v7.952h3.656C153.01,230.429,154.7,229.79,154.45,227.962Zm-5.073-3.908h1.942c.526,0,.914.251.914.777s-.251.914-.777.914H149.24v-1.691Zm2.217,4.822h-2.217v-1.828h2.217C153.147,227.185,153.01,228.876,151.593,228.876Z" transform="translate(-76.934 -102.53)" fill="#0e7c98" fill-rule="evenodd"/>
      <g id="Group_19702" data-name="Group 19702" transform="translate(91.338 102.515)">
        <path id="Path_16874" data-name="Path 16874" d="M207.048,136.2h1.44l2.856,6.9H209.79l-.64-1.554h-2.856l-.64,1.554H204.1Zm1.577,4.045-.914-2.217-.914,2.217Z" transform="translate(-204.1 -136.2)" fill="#fff"/>
      </g>
      <g id="Group_19703" data-name="Group 19703" transform="translate(98.33 102.451)">
        <path id="Path_16875" data-name="Path 16875" d="M229.3,139.491h0a3.642,3.642,0,0,1,3.77-3.519,3.479,3.479,0,0,1,2.468,1.051l-.914,1.165a2.292,2.292,0,0,0-1.691-.777,1.947,1.947,0,0,0-1.942,2.079h0a1.872,1.872,0,0,0,1.942,2.079h.137a2.585,2.585,0,0,0,1.828-.777l.914,1.051a3.65,3.65,0,0,1-5.073.388A3.383,3.383,0,0,1,229.3,139.491Z" transform="translate(-229.3 -135.964)" fill="#fff"/>
      </g>
      <g id="Group_19704" data-name="Group 19704" transform="translate(104.868 102.451)">
        <path id="Path_16876" data-name="Path 16876" d="M252.9,139.491h0a3.642,3.642,0,0,1,3.771-3.519,3.479,3.479,0,0,1,2.468,1.051l-.914,1.165a2.292,2.292,0,0,0-1.691-.777,1.947,1.947,0,0,0-1.942,2.079h0a1.872,1.872,0,0,0,1.942,2.079h.137a2.585,2.585,0,0,0,1.828-.777l.914,1.051a3.65,3.65,0,0,1-5.073.388A3.323,3.323,0,0,1,252.9,139.491Z" transform="translate(-252.9 -135.964)" fill="#fff"/>
        <path id="Path_16877" data-name="Path 16877" d="M283.137,136.6h3.131a3.143,3.143,0,0,1,1.942.64,1.844,1.844,0,0,1,.526,1.554h0a2.1,2.1,0,0,1-1.44,2.079l1.691,2.468h-1.828l-1.44-2.217h-1.165V143.2H283l.137-6.6Zm2.994,3.382c.777,0,1.165-.388,1.165-1.051h0c0-.64-.388-1.051-1.165-1.051h-1.554v1.942l1.554.16Z" transform="translate(-276.122 -136.455)" fill="#fff"/>
        <path id="Path_16878" data-name="Path 16878" d="M312.7,136.6h5.21v1.3h-3.656v1.44H317.5v1.3h-3.245v1.44h3.656v1.3H312.7Z" transform="translate(-299.035 -136.455)" fill="#fff"/>
        <path id="Path_16879" data-name="Path 16879" d="M338.9,136.569h2.742A3.465,3.465,0,0,1,345.3,139.7v.251h0a3.36,3.36,0,0,1-3.382,3.382h-2.994v-6.764Zm2.742,5.484a2.1,2.1,0,0,0,2.079-1.828v-.251h0a2.1,2.1,0,0,0-1.828-2.079h-1.3v4.159Z" transform="translate(-319.248 -136.424)" fill="#fff"/>
        <path id="Path_16880" data-name="Path 16880" d="M370.8,136.6h1.554v6.764H370.8Z" transform="translate(-343.858 -136.455)" fill="#fff"/>
        <path id="Path_16881" data-name="Path 16881" d="M382.579,138.04H380.5V136.6h5.6v1.44h-2.079V143.5h-1.554l.114-5.462Z" transform="translate(-351.341 -136.455)" fill="#fff"/>
        <path id="Path_16882" data-name="Path 16882" d="M407.9,136.6h5.21v1.3h-3.656v1.44h3.268v1.3h-3.245v1.44h3.656v1.3h-5.21V136.6Z" transform="translate(-372.48 -136.455)" fill="#fff"/>
        <path id="Path_16883" data-name="Path 16883" d="M434.7,136.569h2.742A3.465,3.465,0,0,1,441.1,139.7v.251h0a3.36,3.36,0,0,1-3.382,3.382h-2.993v-6.764Zm2.605,5.484a2.1,2.1,0,0,0,2.079-1.828v-.251h0a2.1,2.1,0,0,0-1.828-2.079h-1.3v4.159Z" transform="translate(-393.156 -136.424)" fill="#fff"/>
      </g>
      <g id="Group_19705" data-name="Group 19705" transform="translate(91.847 113.349)">
        <path id="Path_16884" data-name="Path 16884" d="M205.9,175.9h3.131a2.536,2.536,0,0,1,1.828.64,1.961,1.961,0,0,1,.526,1.165h0a1.635,1.635,0,0,1-.914,1.44,1.7,1.7,0,0,1,1.3,1.691h0c0,1.3-1.051,1.828-2.605,1.828h-3.245C205.9,182.664,205.9,175.9,205.9,175.9Zm2.879,2.719c.64,0,1.051-.251,1.051-.777h0c0-.388-.388-.64-1.051-.64h-1.3v1.44h1.3Zm.389,2.742c.64,0,1.051-.251,1.051-.777h0c0-.388-.388-.777-1.165-.777H207.5v1.554Z" transform="translate(-205.9 -175.763)" fill="#fff"/>
        <path id="Path_16885" data-name="Path 16885" d="M234.4,179.808V175.9h1.554v3.908c0,1.165.526,1.691,1.44,1.691s1.44-.526,1.44-1.691V175.9h1.554v3.908a3.037,3.037,0,0,1-2.856,3.131,2.946,2.946,0,0,1-3.131-2.856v-.274Z" transform="translate(-227.887 -175.763)" fill="#fff"/>
        <path id="Path_16886" data-name="Path 16886" d="M262.9,181.287l.914-1.051a2.939,2.939,0,0,0,2.079.777c.64,0,1.051-.251,1.051-.64h0c0-.388-.251-.526-1.44-.914-1.44-.388-2.217-.777-2.217-2.079h0a2.178,2.178,0,0,1,2.217-2.079h.137a3.356,3.356,0,0,1,2.468.914l-.777,1.165a3.113,3.113,0,0,0-1.828-.64c-.526,0-.914.251-.914.64h0c0,.388.251.526,1.44.914,1.44.388,2.217.914,2.217,2.079h0c0,1.3-1.051,2.079-2.468,2.079A5.45,5.45,0,0,1,262.9,181.287Z" transform="translate(-249.875 -175.3)" fill="#fff"/>
        <path id="Path_16887" data-name="Path 16887" d="M290.9,175.9h1.554v6.764H290.9Z" transform="translate(-271.476 -175.763)" fill="#fff"/>
        <path id="Path_16888" data-name="Path 16888" d="M302.3,175.9h1.44l3.245,4.159V175.9h1.44v6.764h-1.3l-3.245-4.3v4.3h-1.44V175.9Z" transform="translate(-280.271 -175.763)" fill="#fff"/>
        <path id="Path_16889" data-name="Path 16889" d="M334.2,175.9h5.21v1.3h-3.656v1.44H339v1.3h-3.245v1.44h3.656v1.3H334.2Z" transform="translate(-304.882 -175.763)" fill="#fff"/>
      </g>
      <g id="Group_19706" data-name="Group 19706" transform="translate(126.624 113.349)">
        <path id="Path_16890" data-name="Path 16890" d="M331.4,181.287l.914-1.051a2.939,2.939,0,0,0,2.079.777c.64,0,1.051-.251,1.051-.64h0c0-.388-.251-.526-1.3-.914-1.3-.388-2.217-.777-2.217-2.079h0a2.178,2.178,0,0,1,2.217-2.079h.137a3.356,3.356,0,0,1,2.468.914l-.777,1.165a3.112,3.112,0,0,0-1.828-.64c-.663,0-.914.251-.914.64h0c0,.388.251.526,1.44.914,1.44.388,2.217.914,2.217,2.079h0c0,1.3-1.051,2.079-2.468,2.079A5.4,5.4,0,0,1,331.4,181.287Z" transform="translate(-331.4 -175.3)" fill="#fff"/>
      </g>
      <g id="Group_19707" data-name="Group 19707" transform="translate(132.28 113.349)">
        <path id="Path_16891" data-name="Path 16891" d="M351.8,181.287l.914-1.051a2.939,2.939,0,0,0,2.079.777c.64,0,1.051-.251,1.051-.64h0c0-.388-.251-.526-1.3-.914-1.3-.388-2.217-.777-2.217-2.079h0a2.178,2.178,0,0,1,2.217-2.079h.137a3.356,3.356,0,0,1,2.468.914l-.777,1.165a3.113,3.113,0,0,0-1.828-.64c-.663,0-.914.251-.914.64h0c0,.388.251.526,1.44.914,1.44.388,2.217.914,2.217,2.079h0c0,1.3-1.051,2.079-2.468,2.079A5.4,5.4,0,0,1,351.8,181.287Z" transform="translate(-351.8 -175.3)" fill="#fff"/>
      </g>
    </g>
  </g>
</svg>
