<svg xmlns="http://www.w3.org/2000/svg" width="165" height="641.96" viewBox="0 0 165 641.96">
  <g id="tablet_sprite" transform="translate(-43 -1222.635)">
    <g id="drop_down_icon" data-name="drop down icon" transform="translate(52.375 1388.092) rotate(-90)">
      <path id="Chevron_Right" d="M.322,11.785l9.893,9.89a1.111,1.111,0,1,0,1.573-1.569L2.679,11,11.786,1.9A1.111,1.111,0,0,0,10.214.325L.32,10.215A1.121,1.121,0,0,0,.322,11.785Z" transform="translate(0 0)" fill="#0c1b24"/>
    </g>
    <path id="right_arrow_icon" data-name="right arrow icon" d="M20.608,12.237a.858.858,0,0,0-1.184,1.243l6.584,6.245h-37.3a.859.859,0,0,0-.858.858,1,1,0,0,0,1.008.858H25.981l-6.557,6.245a.858.858,0,1,0,1.184,1.243L28.1,21.8a1.715,1.715,0,0,0-.015-2.442Z" transform="translate(55.15 1416.597)" fill="#fff"/>
    <g id="check_icon" data-name="check icon" transform="translate(39.204 1463.128)">
      <g id="Group_4383" data-name="Group 4383" transform="translate(17.293 23.14)">
        <g id="Group_4382" data-name="Group 4382">
          <path id="Path_11947" data-name="Path 11947" d="M119.727,137.057a1.117,1.117,0,0,0-1.552,0h0L107.79,147.44l-3.68-3.68a1.117,1.117,0,0,0-1.607,1.553l.027.027L107,149.81a1.117,1.117,0,0,0,1.58,0l11.174-11.174A1.117,1.117,0,0,0,119.727,137.057Z" transform="translate(-102.19 -136.743)" fill="#fff"/>
        </g>
      </g>
    </g>
    <g id="error_icon" data-name="error icon" transform="translate(47.141 1530.269)">
      <path id="Path_16813" data-name="Path 16813" d="M27.406,25.878l-8.564-14.5a3.034,3.034,0,0,0-5.215,0l-8.564,14.5a2.919,2.919,0,0,0-.026,2.991A2.987,2.987,0,0,0,7.644,30.4h17.18a2.958,2.958,0,0,0,2.608-1.534A2.919,2.919,0,0,0,27.406,25.878Zm-1,2.4a1.827,1.827,0,0,1-1.559.92H7.619a1.815,1.815,0,0,1-1.559-2.71l8.615-14.521a1.779,1.779,0,0,1,1.559-.869,1.8,1.8,0,0,1,1.559.869l8.615,14.5A1.9,1.9,0,0,1,26.409,28.281Z" fill="#c70000"/>
      <path id="Path_16814" data-name="Path 16814" d="M47.693,31.5a.8.8,0,0,0-.793.793v6.417a.793.793,0,1,0,1.585,0V32.293A.8.8,0,0,0,47.693,31.5Z" transform="translate(-31.458 -16.078)" fill="#c70000"/>
      <path id="Path_16815" data-name="Path 16815" d="M47.693,68.5a.747.747,0,0,0-.793.682v.352a.8.8,0,0,0,1.585,0v-.352A.719.719,0,0,0,47.693,68.5Z" transform="translate(-31.458 -43.619)" fill="#c70000"/>
    </g>
    <g id="phone_icon" data-name="phone icon" transform="translate(33.097 1664.177)">
      <path id="Path_16863" data-name="Path 16863" d="M19.8,16.7a.9.9,0,0,0-1.155.1L17.476,17.98c-.393.392-1.718-.1-4.26-2.638s-3.03-3.868-2.638-4.26L11.748,9.91a.9.9,0,0,0,.1-1.155C11.394,8.1,9.653,5.7,9.327,5.37c-.833-.833-2.511-.152-3.651.988-1.878,1.877.281,6.977,4.913,11.609,3.5,3.5,7.27,5.589,9.712,5.589a2.586,2.586,0,0,0,1.9-.676c1.14-1.14,1.822-2.818.988-3.651C22.862,18.9,20.462,17.163,19.8,16.7ZM21.615,22.3c-1.336,1.335-5.85-.32-10.443-4.913S4.924,8.277,6.26,6.942a3.464,3.464,0,0,1,2.1-1.112.534.534,0,0,1,.386.124c.232.232,1.8,2.362,2.431,3.273a.078.078,0,0,1-.01.1L9.994,10.5c-.939.938-.076,2.714,2.638,5.427s4.489,3.577,5.427,2.638l1.171-1.171a.078.078,0,0,1,.1-.01c.912.633,3.042,2.2,3.273,2.431.339.339-.027,1.522-.988,2.484Zm1.111-8.114a8.361,8.361,0,0,0-8.351-8.353.413.413,0,1,1,0-.825,9.187,9.187,0,0,1,9.176,9.178.413.413,0,1,1-.825,0Zm-2.487,0a5.871,5.871,0,0,0-5.863-5.866.413.413,0,0,1,0-.825,6.7,6.7,0,0,1,6.689,6.691.413.413,0,1,1-.825,0Zm-1.662,0a.413.413,0,0,1-.825,0,3.381,3.381,0,0,0-3.376-3.378.413.413,0,0,1,0-.825,4.207,4.207,0,0,1,4.2,4.2Z" transform="translate(16 -68)" fill="#8661bb"/>
    </g>
    <g id="image_1_tablet" data-name="image 1_tablet" transform="translate(44 1659.734)">
      <g id="Group_90" data-name="Group 90">
        <g id="Group_87" data-name="Group 87" transform="translate(0 0)">
          <path id="Path_16727" data-name="Path 16727" d="M1904,1680.887h5.135a2.663,2.663,0,0,0,2.44-1.712l1.1-2.689a3,3,0,0,0-.032-2.331l-1.548-3.513a6.469,6.469,0,0,0-3.3-3.359,12.094,12.094,0,0,0-1.621-.591c-3.21-.861-8.957-2.156-11.545-2.909-2.94-.854-12.162-7.558-16.849-8.682a28.085,28.085,0,0,0-9.051-.944c-2.439.068-7.97.245-11.487.579s-6.9.742-9.068,1.184-4.283.8-4.283.8l.025.978s.849-.057.887.184a30.726,30.726,0,0,1-2.923,4.28c-.97,1.218-2.041,2.585-2.067,4.089s.426,2.794.337,3.154-2.054,1.734-1.9,2.976c.176,1.426.563,5.194.78,5.711s1.118.7,2.254.667,3.259,2,3.259,2" transform="translate(-1838.239 -1654.118)" fill="#fff" stroke="#a483d2" stroke-linecap="round" stroke-linejoin="round" stroke-width="1.5"/>
        </g>
        <ellipse id="Ellipse_50" data-name="Ellipse 50" cx="6.563" cy="7.042" rx="6.563" ry="7.042" transform="translate(53.365 16.506)" fill="#fff" stroke="#a483d2" stroke-linecap="round" stroke-linejoin="round" stroke-width="1.5"/>
        <circle id="Ellipse_51" data-name="Ellipse 51" cx="7.042" cy="7.042" r="7.042" transform="translate(2.641 23.49) rotate(-45)" fill="#fff" stroke="#a483d2" stroke-linecap="round" stroke-linejoin="round" stroke-width="1.5"/>
        <path id="Path_16728" data-name="Path 16728" d="M3008.835,1916.138a.27.27,0,0,1,.057-.407,1.124,1.124,0,0,1,.635-.221,6.661,6.661,0,0,1,2.271.271,10.645,10.645,0,0,1,1.514.541c.48.206,1.1.484,1.825.842.365.339,1.255,2.339,1.05,2.339-1.443-.142-3.379-.288-4.311-.343a1.163,1.163,0,0,1-.817-.415Z" transform="translate(-2942.46 -1900.696)" fill="#fff" stroke="#a483d2" stroke-linecap="round" stroke-linejoin="round" stroke-width="1.5"/>
        <path id="Path_16729" data-name="Path 16729" d="M3069.634,2033.634l-.244-.653.947-1.848a.511.511,0,0,1,.5-.287l3.49.321c0,.01,0,.018,0,.028a18.6,18.6,0,0,1-.947,2.525c-.693.076-2.109.227-3.149.312A.589.589,0,0,1,3069.634,2033.634Z" transform="translate(-2999.649 -2009.503)" fill="#fff" stroke="#a483d2" stroke-linecap="round" stroke-linejoin="round" stroke-width="1.5"/>
        <g id="Group_89" data-name="Group 89" transform="translate(12.815 2.657)">
          <g id="Group_88" data-name="Group 88">
            <path id="Path_16730" data-name="Path 16730" d="M2097.186,1708.8c-5.571-.38-10.359-.6-15.947-.672-4.49-.081-10.554.036-15.053.253a9.942,9.942,0,0,1-1.2-.89c-.242-.214-.769-.786-.4-1.267a28.3,28.3,0,0,1,2.222-2.245c.4-.364,1.359-1.208,1.835-1.624a1.265,1.265,0,0,1,.645-.292c2.6-.367,6.712-.829,9.81-.932,3.984-.127,5.171-.124,6.939-.075a18.316,18.316,0,0,1,2,.156,20.076,20.076,0,0,1,3.9,1.228,28.964,28.964,0,0,1,3.031,1.306,49.712,49.712,0,0,1,4.511,2.462q.549.337,1.148.728" transform="translate(-2064.462 -1701.024)" fill="#fff" stroke="#a483d2" stroke-linecap="round" stroke-linejoin="round" stroke-width="1.5"/>
          </g>
        </g>
        <path id="Path_16731" data-name="Path 16731" d="M2647.694,1805.988a4.886,4.886,0,0,0-4.1-.31,1.868,1.868,0,0,0-1.529,1.641,2.054,2.054,0,0,0,.952,1.343,4.964,4.964,0,0,0,2.169.932,3.713,3.713,0,0,0,2.4-.414C2648.325,1808.72,2648.478,1806.564,2647.694,1805.988Z" transform="translate(-2596.535 -1796.81)" fill="#fff" stroke="#a483d2" stroke-linecap="round" stroke-linejoin="round" stroke-width="1.5"/>
        <path id="Path_16732" data-name="Path 16732" d="M1867.9,1846.307a7.58,7.58,0,0,0,.883,1.6q-1.863.044-3.729.112l-.048-.37a3.6,3.6,0,0,1-.008-.8,4.6,4.6,0,0,1,.379-1.308l.017-.042q1.145-.037,2.288-.067A3.235,3.235,0,0,0,1867.9,1846.307Z" transform="translate(-1863.46 -1834.598)" fill="#fff" stroke="#a483d2" stroke-linecap="round" stroke-linejoin="round" stroke-width="1.5"/>
        <line id="Line_7" data-name="Line 7" x1="35.26" transform="translate(18.832 26.769)" fill="#fff" stroke="#a483d2" stroke-linecap="round" stroke-linejoin="round" stroke-width="1.5"/>
        <line id="Line_8" data-name="Line 8" y2="15.172" transform="translate(31.058 5.209)" fill="#fff" stroke="#a483d2" stroke-linecap="round" stroke-linejoin="round" stroke-width="1.5"/>
      </g>
      <path id="Path_16817" data-name="Path 16817" d="M4.246,0A4.246,4.246,0,1,1,0,4.246,4.246,4.246,0,0,1,4.246,0Z" transform="matrix(0.973, -0.23, 0.23, 0.973, 54.819, 20.39)" fill="#fff" stroke="#a483d2" stroke-linecap="round" stroke-width="1.5"/>
      <circle id="Ellipse_53" data-name="Ellipse 53" cx="4.246" cy="4.246" r="4.246" transform="translate(6.594 23.49) rotate(-45)" fill="#fff" stroke="#a483d2" stroke-linecap="round" stroke-linejoin="round" stroke-width="1.5"/>
    </g>
    <g id="image_2_tablet" data-name="image 2_tablet" transform="translate(44 1733.183)">
      <g id="Group_19553" data-name="Group 19553">
        <path id="Path_16825" data-name="Path 16825" d="M1024.956,1744.074v2.151a1.268,1.268,0,0,1-1.173,1.339h-4.209a1.635,1.635,0,0,1-1.511-1.778l.415-14.369" transform="translate(-1016.084 -1705.655)" fill="#fff" stroke="#a483d2" stroke-linecap="round" stroke-linejoin="round" stroke-width="1.5"/>
        <path id="Path_16826" data-name="Path 16826" d="M2196.989,1744.074v2.151a1.268,1.268,0,0,0,1.173,1.339h4.209a1.635,1.635,0,0,0,1.51-1.778l-.415-14.369" transform="translate(-2151.836 -1705.655)" fill="#fff" stroke="#a483d2" stroke-linecap="round" stroke-linejoin="round" stroke-width="1.5"/>
        <path id="Path_16827" data-name="Path 16827" d="M1029.8,1027.934a3.82,3.82,0,0,0-3.152,1.778c-3.273,4.836-6.242,12.755-7.053,14.995a2.231,2.231,0,0,1-.7,1l-1.53,1.246a2.045,2.045,0,0,0-.7,1.773l1.472,16.01a1.679,1.679,0,0,0,1.583,1.619h44.043a1.679,1.679,0,0,0,1.583-1.619l1.472-16.01a2.046,2.046,0,0,0-.7-1.773l-1.53-1.246a2.233,2.233,0,0,1-.7-1c-.811-2.239-3.78-10.159-7.052-14.995a3.82,3.82,0,0,0-3.152-1.778Z" transform="translate(-1014.726 -1027.934)" fill="#fff" stroke="#a483d2" stroke-linecap="round" stroke-linejoin="round" stroke-width="1.5"/>
        <path id="Path_16828" data-name="Path 16828" d="M1090.046,1556.1l4.312,1.024c1.265.3,2.6,2.058,3.366,3.226a.593.593,0,0,1-.469.941l-8.693-.9a1.187,1.187,0,0,1-.993-1.114,3.272,3.272,0,0,1,.705-2.667A1.816,1.816,0,0,1,1090.046,1556.1Z" transform="translate(-1083.018 -1536.709)" fill="#fff" stroke="#a483d2" stroke-linecap="round" stroke-linejoin="round" stroke-width="1.5"/>
        <path id="Path_16829" data-name="Path 16829" d="M969.124,1355.793v-3.16a.629.629,0,0,0-.613-.644H966.23a2.115,2.115,0,0,0-2.046,1.764l-.108.57a.875.875,0,0,0,.745,1.049Z" transform="translate(-964.059 -1340.121)" fill="#fff" stroke="#a483d2" stroke-linecap="round" stroke-linejoin="round" stroke-width="1.5"/>
        <path id="Path_16830" data-name="Path 16830" d="M1269.589,1108.95l-3.961-9.907a2.837,2.837,0,0,0-2.438-2.07h-21.2a2.837,2.837,0,0,0-2.438,2.07l-3.961,9.907c-.206.527.053,1.184.468,1.184h0c13.012,1.059,20.279,1.352,31.93.184l1.131-.184C1269.536,1110.135,1269.8,1109.477,1269.589,1108.95Z" transform="translate(-1225.579 -1094.445)" fill="#fff" stroke="#a483d2" stroke-linecap="round" stroke-linejoin="round" stroke-width="1.5"/>
        <path id="Path_16831" data-name="Path 16831" d="M2042.654,1556.1l-4.312,1.024c-1.264.3-2.6,2.058-3.366,3.226a.593.593,0,0,0,.469.941l8.693-.9a1.186,1.186,0,0,0,.993-1.114,3.273,3.273,0,0,0-.705-2.667A1.816,1.816,0,0,0,2042.654,1556.1Z" transform="translate(-1995.657 -1536.709)" fill="#fff" stroke="#a483d2" stroke-linecap="round" stroke-linejoin="round" stroke-width="1.5"/>
        <path id="Path_16832" data-name="Path 16832" d="M1494.882,1709.629h-14.554c-.523-.026-.916.339-.756.7l.772,1.743a3.25,3.25,0,0,0,2.825,1.641h8.872a3.25,3.25,0,0,0,2.825-1.641l.772-1.743C1495.8,1709.968,1495.4,1709.6,1494.882,1709.629Z" transform="translate(-1460.658 -1684.662)" fill="#fff" stroke="#a483d2" stroke-linecap="round" stroke-linejoin="round" stroke-width="1.5"/>
        <path id="Path_16833" data-name="Path 16833" d="M2303.968,1355.793v-3.16a.629.629,0,0,1,.613-.644h2.282a2.115,2.115,0,0,1,2.046,1.764l.108.57a.875.875,0,0,1-.745,1.049Z" transform="translate(-2254.898 -1340.121)" fill="#fff" stroke="#a483d2" stroke-linecap="round" stroke-linejoin="round" stroke-width="1.5"/>
      </g>
      <g id="Group_19554" data-name="Group 19554" transform="translate(11.006 33.409)">
        <line id="Line_25" data-name="Line 25" x2="14.136" y2="0.856" transform="translate(0 0)" fill="#fff" stroke="#a483d2" stroke-linecap="round" stroke-linejoin="round" stroke-width="1.5"/>
        <line id="Line_26" data-name="Line 26" x1="14.136" y2="0.856" transform="translate(17.746 0)" fill="#fff" stroke="#a483d2" stroke-linecap="round" stroke-linejoin="round" stroke-width="1.5"/>
      </g>
      <path id="Path_16834" data-name="Path 16834" d="M1753.691,1232.457c.2-.114.364,0,.357.45a13.213,13.213,0,0,1-.308,1.527.418.418,0,0,1-.425.328,1.828,1.828,0,0,1-.108.365,3.2,3.2,0,0,1-1.4,1.6c-.308.175-.587.329-.587.329a1.834,1.834,0,0,1-1.937-.084l-.7-.495a2.628,2.628,0,0,1-1.09-1.678q-.012-.068-.021-.138a.418.418,0,0,1-.413-.342,13.23,13.23,0,0,1-.255-1.537c.008-.453.175-.559.372-.438" transform="translate(-1718.129 -1224.812)" fill="#fff" stroke="#a483d2" stroke-linecap="round" stroke-linejoin="round" stroke-width="1.5"/>
      <g id="Group_19555" data-name="Group 19555" transform="translate(25.438 11.81)">
        <path id="Path_16835" data-name="Path 16835" d="M1663.644,1350.416l-.015.859a.929.929,0,0,1-.686.882,16.8,16.8,0,0,0-3.171.8c-1.064.6-.917,1.752-1.106,2.25" transform="translate(-1658.666 -1350.416)" fill="#fff" stroke="#a483d2" stroke-linecap="round" stroke-linejoin="round" stroke-width="1.5"/>
        <path id="Path_16836" data-name="Path 16836" d="M1894.963,1356.1c-.182-.478-.165-1.421-1.4-1.605a24.142,24.142,0,0,1-2.9-.64.929.929,0,0,1-.655-.9l.015-.859" transform="translate(-1881.536 -1352.027)" fill="#fff" stroke="#a483d2" stroke-linecap="round" stroke-linejoin="round" stroke-width="1.5"/>
      </g>
      <path id="Path_16837" data-name="Path 16837" d="M1780.29,1398.018a3.557,3.557,0,0,1-4.851-.085" transform="translate(-1745.724 -1384.384)" fill="#fff" stroke="#a483d2" stroke-linecap="round" stroke-linejoin="round" stroke-width="1.5"/>
      <path id="Path_16838" data-name="Path 16838" d="M1749.568,1099.041l.785,1.109a4.431,4.431,0,0,1-.074,4.242l-.973-2.78-2.813-.355a1.387,1.387,0,0,0-1.719,1.3h0c-.68.163-.927,2.057-.927,2.057a10.374,10.374,0,0,1-.545-2.395,3.2,3.2,0,0,1,1.814-3.173Z" transform="translate(-1714.752 -1096.437)" fill="#fff" stroke="#a483d2" stroke-linecap="round" stroke-linejoin="round" stroke-width="1.5"/>
    </g>
    <g id="image_3_tablet" data-name="image 3_tablet" transform="translate(-2695.549 1123.756)">
      <g id="Group_19567" data-name="Group 19567" transform="translate(2739.549 691.577)">
        <path id="Path_16850" data-name="Path 16850" d="M2739.549,874.8v44.892a1.806,1.806,0,0,0,1.807,1.808h56.358a1.81,1.81,0,0,0,1.813-1.808V874.8a1.815,1.815,0,0,0-1.813-1.813h-56.358A1.81,1.81,0,0,0,2739.549,874.8Zm4.706,8.689a1.091,1.091,0,0,1,1.085-1.091h48.4a1.091,1.091,0,0,1,1.085,1.091V915.7a1.087,1.087,0,0,1-1.085,1.086h-48.4a1.087,1.087,0,0,1-1.085-1.086Zm29.971,12.916a10.129,10.129,0,0,0,1.57,5.968c.429.571.813,1.065,1.172,1.48,1.156,1.338,2.07,1.9,3.514,1.9,1.888,0,2.873-.964,4.68-3.378a10.151,10.151,0,0,0,1.576-5.968v-.3a1.094,1.094,0,0,0,.666-1.1,6.522,6.522,0,0,0-6.705-6.266h-.859a6.71,6.71,0,0,0-6.149,4.145,2.171,2.171,0,0,0,.535,2.418Z" transform="translate(-2739.549 -872.983)" fill="#fff" stroke="#a483d2" stroke-linecap="round" stroke-linejoin="round" stroke-width="1.5"/>
        <g id="Group_19566" data-name="Group 19566" transform="translate(4.707 4.707)">
          <line id="Line_29" data-name="Line 29" x1="12.219" transform="translate(38.346 0)" fill="#fff" stroke="#a483d2" stroke-linecap="round" stroke-linejoin="round" stroke-width="1.5"/>
          <line id="Line_30" data-name="Line 30" x2="12.219" transform="translate(0 0)" fill="#fff" stroke="#a483d2" stroke-linecap="round" stroke-linejoin="round" stroke-width="1.5"/>
          <path id="Path_16851" data-name="Path 16851" d="M3115.326,952.43h15.447" transform="translate(-3097.767 -952.43)" fill="#fff" stroke="#a483d2" stroke-linecap="round" stroke-linejoin="round" stroke-width="1.5"/>
        </g>
      </g>
      <g id="Group_19572" data-name="Group 19572" transform="translate(2744.255 700.988)">
        <path id="Path_16852" data-name="Path 16852" d="M3102.9,1066.217h32.658a1.087,1.087,0,0,0,1.085-1.086v-32.219a1.091,1.091,0,0,0-1.085-1.091h-23.085Zm13.148-20.388v-1.106a2.173,2.173,0,0,1-.535-2.418,6.711,6.711,0,0,1,6.15-4.145h.858a6.522,6.522,0,0,1,6.706,6.266,1.1,1.1,0,0,1-.667,1.1v.3a10.149,10.149,0,0,1-1.575,5.968c-1.808,2.414-2.792,3.378-4.681,3.378-1.444,0-2.358-.561-3.514-1.9-.359-.414-.743-.909-1.172-1.479A10.127,10.127,0,0,1,3116.048,1045.828Z" transform="translate(-3086.076 -1031.822)" fill="#fff" stroke="#a483d2" stroke-linecap="round" stroke-linejoin="round" stroke-width="1.5"/>
        <path id="Path_16853" data-name="Path 16853" d="M3313.717,1145.329v.005a2.1,2.1,0,0,0,.7.439,6.393,6.393,0,0,0,4.3-.081c.005,0,.005.005.01.005a5.467,5.467,0,0,0,1.03.55,2.648,2.648,0,0,0,2.807-.348h.005l2.6.167c.106.035.207.071.307.1a1.095,1.095,0,0,0,1.419-1.136,6.523,6.523,0,0,0-6.706-6.266h-.858a6.712,6.712,0,0,0-6.15,4.146A2.172,2.172,0,0,0,3313.717,1145.329Z" transform="translate(-3283.745 -1132.428)" fill="#efeff2" stroke="#a483d2" stroke-linecap="round" stroke-linejoin="round" stroke-width="1.5"/>
        <path id="Path_16854" data-name="Path 16854" d="M3326.2,1256.7c.429.571.813,1.065,1.171,1.479,1.156,1.338,2.07,1.9,3.514,1.9,1.889,0,2.873-.964,4.681-3.378a10.153,10.153,0,0,0,1.575-5.968v-.3a1.094,1.094,0,0,1-.752.035c-.1-.03-.2-.066-.308-.1l-2.6-.167h-.005a2.648,2.648,0,0,1-2.808.348,5.453,5.453,0,0,1-1.03-.55c-.005,0-.005,0-.01,0a6.393,6.393,0,0,1-4.3.081,2.1,2.1,0,0,1-.7-.439v1.1A10.128,10.128,0,0,0,3326.2,1256.7Z" transform="translate(-3294.653 -1236.723)" fill="none" stroke="#a483d2" stroke-linecap="round" stroke-linejoin="round" stroke-width="1.5"/>
        <g id="Group_19570" data-name="Group 19570" transform="translate(26.653 10.623)">
          <g id="Group_19569" data-name="Group 19569" transform="translate(3.308)">
            <path id="Path_16855" data-name="Path 16855" d="M3326.2,1256.7c.429.571.813,1.065,1.171,1.479,1.156,1.338,2.07,1.9,3.514,1.9,1.889,0,2.873-.964,4.681-3.378a10.153,10.153,0,0,0,1.575-5.968v-.3a1.094,1.094,0,0,1-.752.035c-.1-.03-.2-.066-.308-.1l-2.6-.167h-.005a2.648,2.648,0,0,1-2.808.348,5.453,5.453,0,0,1-1.03-.55c-.005,0-.005,0-.01,0a6.393,6.393,0,0,1-4.3.081,2.1,2.1,0,0,1-.7-.439v1.1A10.128,10.128,0,0,0,3326.2,1256.7Z" transform="translate(-3324.614 -1247.347)" fill="#fff" stroke="#a483d2" stroke-linecap="round" stroke-linejoin="round" stroke-width="1.5"/>
            <g id="Group_19568" data-name="Group 19568" transform="translate(3.167)">
              <path id="Path_16856" data-name="Path 16856" d="M3474.262,1245.624a3.237,3.237,0,0,0,.752-.853" transform="translate(-3468.561 -1242.777)" fill="none" stroke="#a483d2" stroke-linecap="round" stroke-linejoin="round" stroke-width="1.5"/>
              <path id="Path_16857" data-name="Path 16857" d="M3379.842,1218.516a4.662,4.662,0,0,1-1.788-2.292" transform="translate(-3378.054 -1215.921)" fill="none" stroke="#a483d2" stroke-linecap="round" stroke-linejoin="round" stroke-width="1.5"/>
              <path id="Path_16858" data-name="Path 16858" d="M3462.026,1214.126a6.6,6.6,0,0,1-3.529-3.014" transform="translate(-3453.731 -1211.112)" fill="none" stroke="#a483d2" stroke-linecap="round" stroke-linejoin="round" stroke-width="1.5"/>
            </g>
          </g>
          <path id="Path_16859" data-name="Path 16859" d="M3486.973,1393.881s-.638,4.013.569,4.737,5.491,2.655,5.491,2.655" transform="translate(-3473.887 -1383.051)" fill="none" stroke="#a483d2" stroke-linecap="round" stroke-linejoin="round" stroke-width="1.5"/>
          <path id="Path_16860" data-name="Path 16860" d="M3274.84,1393.881s.638,4.013-.569,4.737-5.49,2.655-5.49,2.655" transform="translate(-3268.781 -1383.051)" fill="none" stroke="#a483d2" stroke-linecap="round" stroke-linejoin="round" stroke-width="1.5"/>
          <path id="Path_16861" data-name="Path 16861" d="M3361.451,1473.827a5.637,5.637,0,0,0,8.165,0" transform="translate(-3355.96 -1458.261)" fill="none" stroke="#a483d2" stroke-linecap="round" stroke-linejoin="round" stroke-width="1.5"/>
        </g>
        <g id="Group_19571" data-name="Group 19571" transform="translate(0 0)">
          <path id="Path_16862" data-name="Path 16862" d="M2818.968,1032.913v32.219a1.087,1.087,0,0,0,1.085,1.086h15.738l9.573-34.395h-25.311A1.091,1.091,0,0,0,2818.968,1032.913Z" transform="translate(-2818.968 -1031.822)" fill="#efeff2" stroke="#a483d2" stroke-linecap="round" stroke-linejoin="round" stroke-width="1.5"/>
          <line id="Line_31" data-name="Line 31" x1="14.12" transform="translate(5.492 5.493)" fill="none" stroke="#a483d2" stroke-linecap="round" stroke-linejoin="round" stroke-width="1.5"/>
          <line id="Line_32" data-name="Line 32" x1="7.602" transform="translate(5.492 10.984)" fill="none" stroke="#a483d2" stroke-linecap="round" stroke-linejoin="round" stroke-width="1.5"/>
          <line id="Line_33" data-name="Line 33" x1="10.861" transform="translate(5.492 16.475)" fill="none" stroke="#a483d2" stroke-linecap="round" stroke-linejoin="round" stroke-width="1.5"/>
          <line id="Line_34" data-name="Line 34" x1="7.602" transform="translate(5.492 21.966)" fill="none" stroke="#a483d2" stroke-linecap="round" stroke-linejoin="round" stroke-width="1.5"/>
        </g>
      </g>
    </g>
    <g id="insure-logo" transform="translate(44.323 1222.635)">
      <g id="Layer_2" data-name="Layer 2">
        <g id="Layer_1-2" data-name="Layer 1-2">
          <path id="Path_2016" data-name="Path 2016" d="M0,3.193A2.7,2.7,0,0,1,1.049.946,3.524,3.524,0,0,1,3.6.046a3.522,3.522,0,0,1,2.548.9,3.074,3.074,0,0,1,.149,4.346h0l-.149.15a3.525,3.525,0,0,1-2.548.9,3.528,3.528,0,0,1-2.549-.9A3.492,3.492,0,0,1,0,3.193ZM6.894,29.12H.449V8.438H6.894Z" transform="translate(0 -0.046)" fill="#010852"/>
          <path id="Path_2017" data-name="Path 2017" d="M15.766,8.221l.15,2.4A7.381,7.381,0,0,1,21.76,7.772,5.715,5.715,0,0,1,26.555,9.72,9.057,9.057,0,0,1,28.2,15.565V28.9H21.76V15.865a3.112,3.112,0,0,0-.6-2.248,3.107,3.107,0,0,0-2.248-.749,3.086,3.086,0,0,0-2.848,1.5V28.9H9.621V8.221Z" transform="translate(0.27 0.171)" fill="#010852"/>
          <path id="Path_2018" data-name="Path 2018" d="M41.285,23.054a1.439,1.439,0,0,0-.9-1.349,21.661,21.661,0,0,0-3.3-1.05,17.041,17.041,0,0,1-3.9-1.349,6.414,6.414,0,0,1-2.4-2.1,4.937,4.937,0,0,1-.9-2.848,5.374,5.374,0,0,1,2.4-4.646,9.67,9.67,0,0,1,6.145-1.8,11.079,11.079,0,0,1,6.594,1.8,5.849,5.849,0,0,1,2.548,4.946H41.136a2.294,2.294,0,0,0-2.549-2.549,2.253,2.253,0,0,0-1.648.6,1.791,1.791,0,0,0-.749,1.349,1.439,1.439,0,0,0,.9,1.349,13.909,13.909,0,0,0,2.7.9,13.505,13.505,0,0,1,3.3.9c3.147,1.049,4.646,3,4.646,5.694a5.519,5.519,0,0,1-2.549,4.646,10.908,10.908,0,0,1-6.444,1.8,12.987,12.987,0,0,1-4.8-.9,9.3,9.3,0,0,1-3.3-2.548,6.013,6.013,0,0,1-1.2-3.447h5.995a2.517,2.517,0,0,0,.9,2.1,3.8,3.8,0,0,0,2.4.6,2.543,2.543,0,0,0,1.948-.6A1.923,1.923,0,0,0,41.285,23.054Z" transform="translate(0.826 0.175)" fill="#010852"/>
          <path id="Path_2020" data-name="Path 2020" d="M83.577,14.062l-2.1-.149c-2.1,0-3.3.6-3.9,1.948V28.9H71.137V8.217h5.995l.15,2.7a4.745,4.745,0,0,1,4.5-3,3.811,3.811,0,0,1,1.8.3Z" transform="translate(1.997 0.175)" fill="#010852"/>
          <path id="Path_2021" data-name="Path 2021" d="M94.314,29.348A10.288,10.288,0,0,1,86.671,26.5a9.94,9.94,0,0,1-3-7.343v-.6a13.1,13.1,0,0,1,1.2-5.545A9.2,9.2,0,0,1,88.32,9.267a10.294,10.294,0,0,1,5.4-1.349,9.026,9.026,0,0,1,6.893,2.7,10.788,10.788,0,0,1,2.549,7.493v2.548H90.418a4.742,4.742,0,0,0,1.5,2.7,4.83,4.83,0,0,0,3,1.05,6.013,6.013,0,0,0,4.8-2.1l3,3.447a9.244,9.244,0,0,1-3.447,2.7A19.129,19.129,0,0,1,94.314,29.348Zm-.6-16.485c-1.948,0-3,1.2-3.3,3.747h6.444v-.45a3.815,3.815,0,0,0-.749-2.4A3.676,3.676,0,0,0,93.715,12.863Z" transform="translate(2.348 0.175)" fill="#010852"/>
          <path id="Path_2022" data-name="Path 2022" d="M104.665,27.626a1.049,1.049,0,1,1,1.8.749,1.36,1.36,0,0,1-1.5,0C104.815,28.075,104.665,27.926,104.665,27.626Z" transform="translate(2.937 0.699)" fill="#010852"/>
          <path id="Path_2023" data-name="Path 2023" d="M113.709,27.8a4.486,4.486,0,0,0,2.7-.9,3.356,3.356,0,0,0,1.2-2.248h1.5a4.04,4.04,0,0,1-.748,2.248,5.22,5.22,0,0,1-1.949,1.648,4.915,4.915,0,0,1-2.548.6,5.228,5.228,0,0,1-4.2-1.8,7.229,7.229,0,0,1-1.5-4.945v-.6a7.772,7.772,0,0,1,.749-3.6,6.014,6.014,0,0,1,1.948-2.4,5.4,5.4,0,0,1,3-.9,5.48,5.48,0,0,1,3.747,1.349,4.88,4.88,0,0,1,1.5,3.447h-1.5a3.681,3.681,0,0,0-3.747-3.6h-.149a3.587,3.587,0,0,0-3.148,1.5,6.781,6.781,0,0,0-1.049,4.046v.449a6.217,6.217,0,0,0,1.049,4.046A3.249,3.249,0,0,0,113.709,27.8Z" transform="translate(3.036 0.371)" fill="#010852"/>
          <path id="Path_2024" data-name="Path 2024" d="M120.263,21.8a8.891,8.891,0,0,1,.749-3.446,5.6,5.6,0,0,1,5.245-3.3,5.2,5.2,0,0,1,4.346,1.948,7.984,7.984,0,0,1,1.649,5.1v.3A10.306,10.306,0,0,1,131.5,26a5.449,5.449,0,0,1-2.1,2.4,5.889,5.889,0,0,1-3.147.9,5.2,5.2,0,0,1-4.346-1.948,7.985,7.985,0,0,1-1.649-5.1Zm1.5.45a6.822,6.822,0,0,0,1.2,4.046,4.276,4.276,0,0,0,5.995.6h0c.15-.15.449-.3.6-.6a6.1,6.1,0,0,0,1.2-4.2v-.3a6.083,6.083,0,0,0-.6-2.847,4.136,4.136,0,0,0-1.648-1.948,4.524,4.524,0,0,0-2.4-.749,4.293,4.293,0,0,0-3.3,1.5,6.1,6.1,0,0,0-1.2,4.2l.15.3Z" transform="translate(3.375 0.375)" fill="#010852"/>
          <path id="Path_2025" data-name="Path 2025" d="M135.9,15.21v2.248a4.547,4.547,0,0,1,1.948-1.8,4.918,4.918,0,0,1,2.548-.6,3.819,3.819,0,0,1,4.047,2.7,4.872,4.872,0,0,1,1.948-1.949,6.11,6.11,0,0,1,2.7-.748c2.848,0,4.346,1.648,4.5,4.795v8.992h-1.5V19.856a4.455,4.455,0,0,0-.748-2.7,3.088,3.088,0,0,0-2.549-.9,3.612,3.612,0,0,0-2.7,1.049,3.2,3.2,0,0,0-1.2,2.548v8.992h-1.5V19.856a3.087,3.087,0,0,0-.9-2.548,3.3,3.3,0,0,0-2.548-.9,4.149,4.149,0,0,0-2.4.748,5.485,5.485,0,0,0-1.5,2.4v9.292h-1.5V15.21Z" transform="translate(3.776 0.375)" fill="#010852"/>
          <path id="Path_1940" data-name="Path 1940" d="M59.9,29.64c-4.945,0-8.841-3.447-9.142-7.793V8.209h0a1.069,1.069,0,0,0-1.2,1.05V22c.449,4.046,2.4,6.145,5.845,7.494a7.878,7.878,0,0,0,5.545.15Z" transform="translate(1.391 0.183)" fill="#010852"/>
          <g id="Group_91" data-name="Group 91" transform="translate(61.894 8.392)">
            <path id="Path_1740" data-name="Path 1740" d="M60.8,16.3l4.795-3.147L62.144,17.5l6.295.3V9.259a1,1,0,0,0-.9-1.05H60.5Z" transform="translate(-60.196 -8.209)" fill="#0689d6"/>
            <path id="Path_1741" data-name="Path 1741" d="M62.152,18.126,65.6,22.472,60.8,19.325l-.6,9.292a8.308,8.308,0,0,0,7.943-7.943v-2.7Z" transform="translate(-60.204 -7.935)" fill="#0689d6"/>
          </g>
          <g id="Group_92" data-name="Group 92" transform="translate(53.502 8.392)">
            <path id="Path_1742" data-name="Path 1742" d="M58.635,17.351,55.188,13l4.8,3.147.449-7.943H52.941c-.6,0-.9.45-.9,1.05v8.692Z" transform="translate(-52.041 -8.209)" fill="#010852"/>
            <path id="Path_1743" data-name="Path 1743" d="M59.834,19.475l-4.646,3.147,3.447-4.346-6.594-.3v2.7a8.358,8.358,0,0,0,8.243,7.943h.149Z" transform="translate(-52.041 -7.935)" fill="#010852"/>
          </g>
          <path id="Path_9040" data-name="Path 9040" d="M62.382,18.4l3.6,4.346L61.033,19.6l-.45,9.142h-.15l-.6-8.992L55.188,22.9l3.447-4.5-6.594-.3v-.3l6.594-.45-3.447-4.2,4.646,3,.45-7.943h.3l.45,8.093,4.8-3.3-3.447,4.5,6.294.3-.15.3Z" transform="translate(1.461 0.183)" fill="#fff"/>
        </g>
      </g>
    </g>
    <g id="BBB_logo" data-name="BBB logo" transform="translate(-5.079 1204.4)">
      <path id="Path_16864" data-name="Path 16864" d="M54.121,89.6h97.595a6.029,6.029,0,0,1,6.038,6.038v29.543a6.029,6.029,0,0,1-6.038,6.038H54.121a6.029,6.029,0,0,1-6.038-6.038V95.661A5.947,5.947,0,0,1,54.121,89.6Z" fill="#0e7c98"/>
      <path id="Path_16865" data-name="Path 16865" d="M86.718,91.4H55.446A5.6,5.6,0,0,0,49.8,97.046h0V126.59a5.6,5.6,0,0,0,5.646,5.646H86.718Z" transform="translate(-1.325 -1.385)" fill="#fff" fill-rule="evenodd"/>
      <path id="Path_16866" data-name="Path 16866" d="M110.068,150.1l-1.705,2.374a3.213,3.213,0,0,0,.53,4.194l3.272,2.374c.53.392.645.784.392,1.175l.53.392,1.705-2.374a3.108,3.108,0,0,0-.53-4.332.135.135,0,0,1-.138-.138l-3.272-2.351a.834.834,0,0,1-.254-1.175C110.46,150.492,110.068,150.1,110.068,150.1Z" transform="translate(-45.968 -46.558)" fill="#0e7c98" fill-rule="evenodd"/>
      <path id="Path_16867" data-name="Path 16867" d="M117.781,103.3l-2.765,3.8a4.488,4.488,0,0,0,.922,6.038l4.471,3.272a2.572,2.572,0,0,1,.392,3.272l.392.253,3.157-4.332a4.509,4.509,0,0,0-.922-6.43h0l-4.862-3.5a1.486,1.486,0,0,1-.53-1.959.135.135,0,0,1,.138-.138Z" transform="translate(-50.916 -10.543)" fill="#0e7c98" fill-rule="evenodd"/>
      <path id="Path_16868" data-name="Path 16868" d="M98.2,201.867h3.687l.645,2.235h5.9l.645-2.235h3.687l-.53-1.567H98.707Z" transform="translate(-38.571 -85.189)" fill="#0e7c98" fill-rule="evenodd"/>
      <path id="Path_16869" data-name="Path 16869" d="M177.93,254.715h0c0-.138,0-.138-.138-.138h-.253v-.138h.415V254.3H177.4v.415h.415v.138h-.277a.135.135,0,0,1-.138-.138v.138a.135.135,0,0,1,.138.138h.415a1.323,1.323,0,0,1-.023-.277Z" transform="translate(-99.52 -126.745)" fill="#006697" fill-rule="evenodd"/>
      <path id="Path_16870" data-name="Path 16870" d="M181.683,254.122V253.2h-.138l-.254.53h0l-.253-.53H180.9v.922h.138v-.645h0l.253.53.254-.53h0v.645Z" transform="translate(-102.213 -125.899)" fill="#006697" fill-rule="evenodd"/>
      <path id="Path_16871" data-name="Path 16871" d="M89.506,228.008c-.138-1.06-.53-1.314-1.452-1.705a1.776,1.776,0,0,0,1.06-1.705c0-1.567-1.175-2.1-2.627-2.1H82.8v8.02h3.687C88.054,230.5,89.783,229.851,89.506,228.008Zm-4.978-3.941h1.959c.53,0,.922.253.922.784s-.253.922-.784.922H84.39v-1.705Zm2.1,4.862H84.39v-1.844h2.235C88.192,227.224,88.192,228.929,86.625,228.929Z" transform="translate(-26.72 -102.273)" fill="#0e7c98" fill-rule="evenodd"/>
      <path id="Path_16872" data-name="Path 16872" d="M122.006,228.008c-.138-1.06-.53-1.314-1.452-1.705a1.776,1.776,0,0,0,1.06-1.705c0-1.567-1.175-2.1-2.627-2.1H115.3v8.02h3.687C120.554,230.5,122.26,229.851,122.006,228.008Zm-5.116-3.941h1.959c.53,0,.922.253.922.784s-.254.922-.784.922h-2.235v-1.705Zm2.235,4.862H116.89v-1.844h2.235c1.567.138,1.429,1.844,0,1.844Z" transform="translate(-51.73 -102.273)" fill="#0e7c98" fill-rule="evenodd"/>
      <path id="Path_16873" data-name="Path 16873" d="M154.506,228.008c-.138-1.06-.53-1.314-1.452-1.705a1.776,1.776,0,0,0,1.06-1.705c0-1.567-1.175-2.1-2.627-2.1H147.8v8.02h3.687C153.054,230.5,154.76,229.851,154.506,228.008Zm-5.116-3.941h1.959c.53,0,.922.253.922.784s-.253.922-.784.922h-2.235v-1.705Zm2.235,4.862H149.39v-1.844h2.235C153.192,227.224,153.054,228.929,151.625,228.929Z" transform="translate(-76.741 -102.273)" fill="#0e7c98" fill-rule="evenodd"/>
      <g id="Group_19702" data-name="Group 19702" transform="translate(91.704 102.624)">
        <path id="Path_16874" data-name="Path 16874" d="M207.073,136.2h1.452l2.881,6.96h-1.567l-.645-1.567h-2.881l-.645,1.567H204.1Zm1.59,4.079-.922-2.235-.922,2.235Z" transform="translate(-204.1 -136.2)" fill="#fff"/>
      </g>
      <g id="Group_19703" data-name="Group 19703" transform="translate(98.755 102.56)">
        <path id="Path_16875" data-name="Path 16875" d="M229.3,139.521h0a3.673,3.673,0,0,1,3.8-3.549,3.509,3.509,0,0,1,2.489,1.06l-.922,1.175a2.311,2.311,0,0,0-1.705-.784,1.964,1.964,0,0,0-1.959,2.1h0a1.888,1.888,0,0,0,1.959,2.1h.138a2.607,2.607,0,0,0,1.844-.784l.922,1.06a3.681,3.681,0,0,1-5.116.392A3.411,3.411,0,0,1,229.3,139.521Z" transform="translate(-229.3 -135.964)" fill="#fff"/>
      </g>
      <g id="Group_19704" data-name="Group 19704" transform="translate(105.349 102.56)">
        <path id="Path_16876" data-name="Path 16876" d="M252.9,139.521h0a3.673,3.673,0,0,1,3.8-3.549,3.509,3.509,0,0,1,2.489,1.06l-.922,1.175a2.311,2.311,0,0,0-1.705-.784,1.964,1.964,0,0,0-1.959,2.1h0a1.888,1.888,0,0,0,1.959,2.1h.138a2.607,2.607,0,0,0,1.844-.784l.922,1.06a3.681,3.681,0,0,1-5.116.392A3.351,3.351,0,0,1,252.9,139.521Z" transform="translate(-252.9 -135.964)" fill="#fff"/>
        <path id="Path_16877" data-name="Path 16877" d="M283.138,136.6H286.3a3.17,3.17,0,0,1,1.959.645,1.86,1.86,0,0,1,.53,1.567h0a2.118,2.118,0,0,1-1.452,2.1l1.705,2.489h-1.844l-1.452-2.235h-1.175v2.1H283l.138-6.66Zm3.019,3.411c.784,0,1.175-.392,1.175-1.06h0c0-.645-.392-1.06-1.175-1.06H284.59v1.959l1.567.161Z" transform="translate(-276.064 -136.453)" fill="#fff"/>
        <path id="Path_16878" data-name="Path 16878" d="M312.7,136.6h5.254v1.314h-3.687v1.452h3.272v1.314h-3.272v1.452h3.687v1.314H312.7Z" transform="translate(-298.919 -136.453)" fill="#fff"/>
        <path id="Path_16879" data-name="Path 16879" d="M338.9,136.57h2.765a3.494,3.494,0,0,1,3.687,3.157v.254h0a3.388,3.388,0,0,1-3.411,3.411h-3.019V136.57Zm2.765,5.531a2.113,2.113,0,0,0,2.1-1.844V140h0a2.113,2.113,0,0,0-1.844-2.1h-1.314V142.1Z" transform="translate(-319.081 -136.423)" fill="#fff"/>
        <path id="Path_16880" data-name="Path 16880" d="M370.8,136.6h1.567v6.821H370.8Z" transform="translate(-343.63 -136.453)" fill="#fff"/>
        <path id="Path_16881" data-name="Path 16881" d="M382.6,138.052h-2.1V136.6h5.646v1.452h-2.1v5.508h-1.567l.115-5.508Z" transform="translate(-351.095 -136.453)" fill="#fff"/>
        <path id="Path_16882" data-name="Path 16882" d="M407.9,136.6h5.254v1.314h-3.687v1.452h3.3v1.314H409.49v1.452h3.687v1.314h-5.254V136.6Z" transform="translate(-372.18 -136.453)" fill="#fff"/>
        <path id="Path_16883" data-name="Path 16883" d="M434.7,136.57h2.765a3.494,3.494,0,0,1,3.687,3.157v.254h0a3.388,3.388,0,0,1-3.411,3.411h-3.019V136.57Zm2.627,5.531a2.113,2.113,0,0,0,2.1-1.844V140h0a2.113,2.113,0,0,0-1.844-2.1h-1.314V142.1Z" transform="translate(-392.804 -136.423)" fill="#fff"/>
      </g>
      <g id="Group_19705" data-name="Group 19705" transform="translate(92.217 113.55)">
        <path id="Path_16884" data-name="Path 16884" d="M205.9,175.9h3.157a2.558,2.558,0,0,1,1.844.645,1.978,1.978,0,0,1,.53,1.175h0a1.649,1.649,0,0,1-.922,1.452,1.713,1.713,0,0,1,1.314,1.705h0c0,1.314-1.06,1.844-2.627,1.844h-3.272C205.9,182.721,205.9,175.9,205.9,175.9Zm2.9,2.742c.645,0,1.06-.253,1.06-.784h0c0-.392-.392-.645-1.06-.645H207.49v1.452H208.8Zm.392,2.765c.645,0,1.06-.253,1.06-.784h0c0-.392-.392-.783-1.175-.783h-1.567v1.567Z" transform="translate(-205.9 -175.762)" fill="#fff"/>
        <path id="Path_16885" data-name="Path 16885" d="M234.4,179.841V175.9h1.567v3.941c0,1.175.53,1.705,1.452,1.705s1.452-.53,1.452-1.705V175.9h1.567v3.941A3.063,3.063,0,0,1,237.557,183a2.971,2.971,0,0,1-3.157-2.881v-.277Z" transform="translate(-227.832 -175.762)" fill="#fff"/>
        <path id="Path_16886" data-name="Path 16886" d="M262.9,181.338l.922-1.06a2.963,2.963,0,0,0,2.1.784c.645,0,1.06-.253,1.06-.645h0c0-.392-.254-.53-1.452-.922-1.452-.392-2.235-.784-2.235-2.1h0a2.2,2.2,0,0,1,2.235-2.1h.138a3.384,3.384,0,0,1,2.489.922l-.784,1.175a3.139,3.139,0,0,0-1.844-.645c-.53,0-.922.253-.922.645h0c0,.392.253.53,1.452.922,1.452.392,2.235.922,2.235,2.1h0c0,1.314-1.06,2.1-2.489,2.1A5.5,5.5,0,0,1,262.9,181.338Z" transform="translate(-249.764 -175.3)" fill="#fff"/>
        <path id="Path_16887" data-name="Path 16887" d="M290.9,175.9h1.567v6.821H290.9Z" transform="translate(-271.312 -175.762)" fill="#fff"/>
        <path id="Path_16888" data-name="Path 16888" d="M302.3,175.9h1.452l3.272,4.194V175.9h1.452v6.821h-1.314l-3.272-4.332v4.332h-1.452V175.9Z" transform="translate(-280.085 -175.762)" fill="#fff"/>
        <path id="Path_16889" data-name="Path 16889" d="M334.2,175.9h5.254v1.314h-3.687v1.452h3.272v1.314h-3.272v1.452h3.687v1.314H334.2Z" transform="translate(-304.633 -175.762)" fill="#fff"/>
      </g>
      <g id="Group_19706" data-name="Group 19706" transform="translate(127.289 113.55)">
        <path id="Path_16890" data-name="Path 16890" d="M331.4,181.338l.922-1.06a2.963,2.963,0,0,0,2.1.784c.645,0,1.06-.253,1.06-.645h0c0-.392-.254-.53-1.314-.922-1.314-.392-2.235-.784-2.235-2.1h0a2.2,2.2,0,0,1,2.235-2.1h.138a3.384,3.384,0,0,1,2.489.922l-.784,1.175a3.139,3.139,0,0,0-1.844-.645c-.668,0-.922.253-.922.645h0c0,.392.253.53,1.452.922,1.452.392,2.235.922,2.235,2.1h0c0,1.314-1.06,2.1-2.489,2.1A5.443,5.443,0,0,1,331.4,181.338Z" transform="translate(-331.4 -175.3)" fill="#fff"/>
      </g>
      <g id="Group_19707" data-name="Group 19707" transform="translate(132.992 113.55)">
        <path id="Path_16891" data-name="Path 16891" d="M351.8,181.338l.922-1.06a2.963,2.963,0,0,0,2.1.784c.645,0,1.06-.253,1.06-.645h0c0-.392-.254-.53-1.314-.922-1.314-.392-2.235-.784-2.235-2.1h0a2.2,2.2,0,0,1,2.235-2.1h.138a3.384,3.384,0,0,1,2.489.922l-.784,1.175a3.139,3.139,0,0,0-1.844-.645c-.668,0-.922.253-.922.645h0c0,.392.254.53,1.452.922,1.452.392,2.235.922,2.235,2.1h0c0,1.314-1.06,2.1-2.489,2.1A5.443,5.443,0,0,1,351.8,181.338Z" transform="translate(-351.8 -175.3)" fill="#fff"/>
      </g>
    </g>
  </g>
</svg>
